<svg width="1313" height="1310" viewBox="0 0 1313 1310" fill="none" xmlns="http://www.w3.org/2000/svg">
<path d="M2 -349L848.498 82.7163L926.662 42.6354L1864 518" stroke="black" stroke-width="4" stroke-linecap="round" stroke-linejoin="round"/>
<path d="M1122.78 782.761L1197.07 738.804V428.285L934.687 273.031L846.164 325.409" stroke="black" stroke-width="4" stroke-linecap="round" stroke-linejoin="round"/>
<path d="M743.063 386.419L672.292 428.285V738.804L698.92 754.563" stroke="black" stroke-width="4" stroke-linecap="round" stroke-linejoin="round"/>
<path d="M744.469 304.638C767.616 300.91 783.432 278.657 779.795 254.935C776.157 231.212 754.445 215.003 731.297 218.73C708.15 222.458 692.334 244.711 695.971 268.433C699.608 292.156 721.322 308.365 744.469 304.638Z" stroke="#FD6824" stroke-width="4"/>
<path d="M846.988 452.694C864.449 445.71 873.08 425.541 866.265 407.646C859.45 389.751 839.77 380.906 822.309 387.89C804.848 394.874 796.218 415.043 803.033 432.938C809.847 450.833 829.527 459.678 846.988 452.694Z" stroke="#FD6824" stroke-width="4"/>
<path d="M497.103 202.359C514.552 192.399 535.015 201.64 542.379 220.652L569.137 300.675" stroke="#FD6824" stroke-width="4"/>
<path d="M543.243 296.614L522.824 231.774C520.225 225.067 515.608 219.383 509.643 215.549C503.678 211.714 496.675 209.927 489.652 210.449L477.925 213.171" stroke="#FD6824" stroke-width="4"/>
<path d="M501.076 376.61L411.03 237.082C409.79 235.045 408.998 232.756 408.708 230.374C408.418 227.992 408.638 225.574 409.352 223.287C410.066 221.001 411.257 218.901 412.843 217.135C414.429 215.368 416.371 213.976 418.535 213.056" stroke="#FD6824" stroke-width="4"/>
<path d="M560.669 404.187C589.24 396.848 606.596 367.162 599.435 337.88C592.275 308.599 563.309 290.811 534.738 298.15C506.167 305.488 488.811 335.175 495.971 364.456C503.132 393.737 532.098 411.525 560.669 404.187Z" stroke="#FD6824" stroke-width="4"/>
<path d="M751.853 302.634L573.586 398.881" stroke="#FD6824" stroke-width="4"/>
<path d="M569.137 300.675L696.912 250.355" stroke="#FD6824" stroke-width="4"/>
<path d="M801.719 411.939L766.311 382.624C762.816 379.18 760.275 374.848 758.947 370.069C757.619 365.29 757.552 360.236 758.753 355.422C761.452 344.543 766.689 331.075 776.721 323.328C785.878 316.224 797.885 314.973 807.787 315.582C813.052 315.888 818.119 317.742 822.384 320.921C826.648 324.1 829.929 328.47 831.835 333.51L848.151 388.356" stroke="#FD6824" stroke-width="4"/>
<path d="M568.549 382.328C585.413 370.529 589.752 346.952 578.239 329.668C566.726 312.384 543.722 307.938 526.857 319.737C509.993 331.536 505.654 355.113 517.167 372.397C528.68 389.681 551.684 394.127 568.549 382.328Z" stroke="#FD6824" stroke-width="4"/>
<path d="M718.508 282.979C714.377 279.047 711.476 273.948 710.172 268.326C708.869 262.704 709.221 256.813 711.185 251.396C713.148 245.98 716.635 241.281 721.204 237.896C725.773 234.51 731.219 232.589 736.853 232.375C742.488 232.162 748.057 233.665 752.858 236.696C757.658 239.726 761.474 244.148 763.823 249.401C766.171 254.654 766.948 260.503 766.053 266.208C765.158 271.913 762.633 277.218 758.796 281.452C756.249 284.265 753.187 286.536 749.783 288.135C746.38 289.734 742.702 290.63 738.961 290.772C735.219 290.914 731.487 290.299 727.978 288.961C724.468 287.624 721.25 285.592 718.508 282.979Z" stroke="#FD6824" stroke-width="4"/>
<path d="M855.948 422.077C856.95 409.958 848.175 399.301 836.35 398.275C824.524 397.249 814.126 406.242 813.125 418.361C812.124 430.48 820.898 441.137 832.724 442.163C844.549 443.19 854.947 434.197 855.948 422.077Z" stroke="#FD6824" stroke-width="4"/>
<path d="M836.316 454.302L851.196 476.845L843.324 517.449L885.944 549.918L888.903 534.657L865.827 506.172L883.666 493.943L901.515 481.714L918.382 514.461L933.262 517.493L920.283 464.716L880.664 456.648L865.795 434.106" stroke="#FD6824" stroke-width="4"/>
<path d="M577.225 -3.6619H646.333L604.231 141.234C592.893 180.277 572.528 206.339 539.831 214.274" stroke="#FD6824" stroke-width="4"/>
<path d="M511.918 185.777C550.284 185.777 574.731 160.611 586.425 120.384L622.469 -3.6619H577.225" stroke="#FD6824" stroke-width="4"/>
<path d="M317.896 -3.6619H576.145L534.054 141.234C520.405 188.223 491.844 217.594 447.021 217.594C402.208 217.594 373.593 188.19 359.988 141.234L317.896 -3.6619Z" stroke="#FD6824" stroke-width="4"/>
<path d="M476.912 159.02C484.629 141.012 476.64 120.002 459.069 112.093C441.498 104.185 420.998 112.372 413.281 130.38C405.564 148.388 413.553 169.398 431.124 177.306C448.695 185.215 469.195 177.028 476.912 159.02Z" stroke="#FD6824" stroke-width="4"/>
<path d="M522.306 361.752L525.437 367.54L532.326 365.481C533.812 367.157 535.551 368.576 537.477 369.687L537.067 377.201L543.265 379.027L546.807 372.387C549.011 372.486 551.216 372.224 553.339 371.612L558.123 377.09L563.771 373.881L561.762 366.887C563.394 365.361 564.779 363.579 565.865 361.608L573.197 362.028L574.968 355.665L568.489 352.046C568.587 349.784 568.331 347.52 567.733 345.34L573.079 340.437L569.947 334.661L563.079 336.686C561.595 335.017 559.859 333.601 557.939 332.492L558.339 324.966L552.141 323.151L548.599 329.791C546.395 329.692 544.19 329.954 542.066 330.566L537.283 325.088L531.635 328.297L533.644 335.358C532.011 336.883 530.626 338.665 529.54 340.637L522.208 340.216L520.438 346.568L526.916 350.198C526.819 352.457 527.074 354.717 527.672 356.894L522.306 361.752ZM543.319 342.939C544.884 342.049 546.67 341.655 548.454 341.806C550.237 341.958 551.936 342.647 553.337 343.788C554.738 344.929 555.777 346.47 556.324 348.216C556.87 349.962 556.9 351.835 556.408 353.598C555.916 355.362 554.925 356.936 553.56 358.122C552.195 359.308 550.518 360.052 548.741 360.262C546.963 360.471 545.165 360.136 543.573 359.298C541.982 358.46 540.668 357.157 539.799 355.555C538.642 353.406 538.363 350.876 539.023 348.518C539.683 346.16 541.227 344.165 543.319 342.972V342.939Z" stroke="#FD6824" stroke-width="4"/>
<path d="M721.467 274.897L725.181 278.438L729.835 275.118C731.344 275.996 732.981 276.62 734.684 276.966L736.174 282.688L741.238 282.489L742.318 276.679C743.991 276.207 745.577 275.46 747.015 274.465L751.896 277.365L755.341 273.558L752.166 268.788C753.019 267.239 753.627 265.562 753.969 263.819L759.541 262.292L759.358 257.102L753.688 255.995C753.217 254.285 752.489 252.661 751.529 251.181L754.347 246.179L750.633 242.649L745.979 245.902C744.468 245.026 742.832 244.403 741.13 244.054L739.651 238.344L734.586 238.532L733.507 244.342C731.837 244.823 730.252 245.569 728.81 246.555L723.929 243.667L720.473 247.474L723.713 252.243C722.854 253.789 722.245 255.467 721.909 257.212L716.327 258.728L716.521 263.919L722.19 265.025C722.65 266.74 723.379 268.366 724.35 269.839L721.467 274.897ZM732.686 255.608C733.644 254.551 734.885 253.809 736.254 253.476C737.623 253.143 739.058 253.233 740.377 253.734C741.695 254.236 742.84 255.128 743.664 256.296C744.489 257.464 744.958 258.857 745.01 260.298C745.063 261.739 744.698 263.163 743.961 264.391C743.224 265.62 742.148 266.597 740.87 267.198C739.591 267.8 738.167 268 736.778 267.773C735.389 267.546 734.096 266.902 733.064 265.922C731.681 264.605 730.864 262.779 730.793 260.845C730.722 258.911 731.403 257.027 732.686 255.608Z" stroke="#FD6824" stroke-width="4"/>
<path d="M785.996 318.193L768.989 291.158" stroke="#FD6824" stroke-width="4"/>
<path d="M754.747 300.188L772.466 327.135" stroke="#FD6824" stroke-width="4"/>
<path d="M698.564 277.856C698.564 277.856 586.263 315.239 603.54 382.69" stroke="#FD6824" stroke-width="4"/>
<path d="M1470.12 1308.11C1470.12 1308.11 1268.6 993.813 1196.22 978.928C1123.84 964.043 1022.48 1024.64 977.61 1015.39C955.236 1010.78 926.967 993.558 892.542 976.847C857.923 960.048 817.171 943.736 801.028 935.901C768.817 920.33 680.401 819.701 688.727 807.019C710.809 773.409 764.821 834.287 764.821 834.287C764.821 834.287 786.051 843.926 803.317 859.264" stroke="#FD6824" stroke-width="4"/>
<path d="M1607.26 1146.74C1607.26 1146.74 1303.77 844.49 1199.79 810.981C1095.82 777.471 989.434 829.595 949.027 831.321C908.62 833.047 812.117 815.75 803.921 854.561C796.676 888.868 857.469 899.768 898.632 898.13C990.319 894.489 1045.15 931.419 1045.15 931.419" stroke="#FD6824" stroke-width="4"/>
<path d="M978.074 905.346C978.074 905.346 953.487 920.574 957.342 946.779" stroke="#FD6824" stroke-width="4"/>
<path d="M835.884 831.742C822.224 816.015 805.817 803.044 787.508 793.495C787.508 793.495 755.664 737.432 721.413 752.759C702.527 761.214 752.177 821.682 752.177 821.682" stroke="#FD6824" stroke-width="4"/>
<path d="M864.715 828.953C855.547 799.781 844.933 785.085 844.933 785.085C844.933 785.085 844.933 716.848 807.323 723.266C794.268 725.48 806.146 804.872 806.146 804.872" stroke="#FD6824" stroke-width="4"/>
<path d="M904.301 829.916C898.73 818.959 891.742 808.822 883.526 799.781C883.526 799.781 885.944 744.448 857.47 744.448C847.935 744.448 849.976 793.418 849.976 793.418" stroke="#FD6824" stroke-width="4"/>
<path d="M854.392 840.905C860.482 846.438 858.366 878.908 852.351 883.677C846.337 888.447 811.437 878.786 811.437 858.457C811.437 838.127 848.302 835.394 854.392 840.905Z" stroke="#FD6824" stroke-width="4"/>
<path d="M843.745 529.744V637.356L934.687 691.162L1025.62 637.356V529.744L934.687 475.927" stroke="#FD6824" stroke-width="4"/>
<path d="M822.246 467.881L780.727 492.449V674.639L934.687 765.74L1088.64 674.639V492.449L934.687 401.348L882.737 432.08" stroke="#FD6824" stroke-width="4"/>
<path d="M945.502 403.147C946.465 397.047 942.42 391.302 936.468 390.315C930.516 389.328 924.911 393.473 923.948 399.573C922.985 405.673 927.029 411.418 932.981 412.404C938.933 413.391 944.539 409.246 945.502 403.147Z" stroke="#FD6824" stroke-width="4"/>
<path d="M1092.82 502.788C1098.39 500.423 1101.04 493.878 1098.73 488.169C1096.42 482.46 1090.04 479.749 1084.47 482.114C1078.9 484.479 1076.25 491.024 1078.56 496.732C1080.87 502.441 1087.25 505.152 1092.82 502.788Z" stroke="#FD6824" stroke-width="4"/>
<path d="M1088.65 685.828C1094.68 685.828 1099.56 680.818 1099.56 674.639C1099.56 668.46 1094.68 663.451 1088.65 663.451C1082.62 663.451 1077.73 668.46 1077.73 674.639C1077.73 680.818 1082.62 685.828 1088.65 685.828Z" stroke="#FD6824" stroke-width="4"/>
<path d="M791.033 495.861C792.907 489.988 789.78 483.669 784.05 481.749C778.319 479.828 772.154 483.032 770.28 488.905C768.406 494.778 771.532 501.096 777.263 503.017C782.994 504.938 789.158 501.734 791.033 495.861Z" stroke="#FD6824" stroke-width="4"/>
<path d="M780.716 685.828C786.745 685.828 791.633 680.818 791.633 674.639C791.633 668.46 786.745 663.451 780.716 663.451C774.687 663.451 769.799 668.46 769.799 674.639C769.799 680.818 774.687 685.828 780.716 685.828Z" stroke="#FD6824" stroke-width="4"/>
<path d="M938.82 776.224C944.397 773.874 947.059 767.336 944.766 761.621C942.473 755.906 936.094 753.178 930.518 755.528C924.942 757.878 922.28 764.415 924.572 770.13C926.865 775.845 933.244 778.573 938.82 776.224Z" stroke="#FD6824" stroke-width="4"/>
<path d="M985.438 587.6V575.294L972.416 572.262C971.472 568.161 969.894 564.242 967.74 560.653L975.029 548.8L966.542 540.091L954.966 547.561C951.466 545.359 947.646 543.741 943.649 542.769L940.691 529.423H928.683L925.725 542.769C921.725 543.741 917.901 545.359 914.397 547.561L902.833 540.091L894.334 548.8L901.623 560.653C899.474 564.244 897.896 568.163 896.947 572.262L883.925 575.294V587.6L896.947 590.632C897.898 594.727 899.477 598.642 901.623 602.23L894.334 614.094L902.833 622.792L914.397 615.322C917.899 617.529 921.723 619.147 925.725 620.114L928.683 633.46H940.691L943.649 620.114C947.647 619.147 951.468 617.529 954.966 615.322L966.542 622.792L975.029 614.094L967.74 602.23C969.892 598.644 971.47 594.729 972.416 590.632L985.438 587.6ZM934.687 598.667C931.352 598.669 928.092 597.657 925.318 595.76C922.545 593.863 920.383 591.165 919.106 588.008C917.828 584.851 917.494 581.376 918.144 578.024C918.794 574.672 920.399 571.593 922.757 569.176C925.115 566.76 928.12 565.114 931.39 564.448C934.661 563.782 938.051 564.125 941.132 565.434C944.212 566.743 946.845 568.959 948.696 571.801C950.547 574.644 951.534 577.985 951.532 581.403C951.538 583.674 951.106 585.923 950.262 588.023C949.418 590.123 948.178 592.031 946.614 593.639C945.049 595.247 943.19 596.522 941.143 597.393C939.097 598.263 936.903 598.711 934.687 598.711V598.667Z" stroke="#FD6824" stroke-width="4"/>
<path d="M744.469 304.638C767.616 300.91 783.432 278.657 779.795 254.935C776.157 231.212 754.445 215.003 731.297 218.73C708.15 222.458 692.334 244.711 695.971 268.433C699.608 292.156 721.322 308.365 744.469 304.638Z" stroke="#FD6824" stroke-width="4" stroke-miterlimit="10"/>
<path d="M846.988 452.694C864.449 445.71 873.08 425.541 866.265 407.646C859.45 389.751 839.77 380.906 822.309 387.89C804.848 394.874 796.218 415.043 803.033 432.938C809.847 450.833 829.527 459.678 846.988 452.694Z" stroke="#FD6824" stroke-width="4" stroke-miterlimit="10"/>
<path d="M497.103 201.359C514.552 191.399 535.015 200.64 542.379 219.652L569.137 299.675" stroke="#FD6824" stroke-width="4" stroke-miterlimit="10"/>
<path d="M543.243 295.614L522.824 230.774C520.225 224.067 515.608 218.383 509.643 214.549C503.678 210.714 496.675 208.927 489.652 209.449L477.925 212.171" stroke="#FD6824" stroke-width="4" stroke-miterlimit="10"/>
<path d="M501.076 377.61L411.03 238.082C409.79 236.045 408.998 233.756 408.708 231.374C408.418 228.992 408.638 226.574 409.352 224.287C410.066 222.001 411.257 219.901 412.843 218.135C414.429 216.368 416.371 214.976 418.535 214.056" stroke="#FD6824" stroke-width="4" stroke-miterlimit="10"/>
<path d="M560.669 404.187C589.24 396.848 606.596 367.162 599.435 337.88C592.275 308.599 563.309 290.811 534.738 298.15C506.167 305.488 488.811 335.175 495.971 364.456C503.132 393.737 532.098 411.525 560.669 404.187Z" stroke="#FD6824" stroke-width="4" stroke-miterlimit="10"/>
<path d="M751.853 301.634L573.586 397.881" stroke="#FD6824" stroke-width="4" stroke-miterlimit="10"/>
<path d="M569.137 300.675L696.912 250.355" stroke="#FD6824" stroke-width="4" stroke-miterlimit="10"/>
<path d="M801.719 411.939L766.311 382.624C762.816 379.18 760.275 374.848 758.947 370.069C757.619 365.29 757.552 360.236 758.753 355.422C761.452 344.543 766.689 331.075 776.721 323.328C785.878 316.224 797.885 314.973 807.787 315.582C813.052 315.888 818.119 317.742 822.384 320.921C826.648 324.1 829.929 328.47 831.835 333.51L848.151 388.356" stroke="#FD6824" stroke-width="4" stroke-miterlimit="10"/>
<path d="M568.549 382.328C585.413 370.529 589.752 346.952 578.239 329.668C566.726 312.384 543.722 307.938 526.857 319.737C509.993 331.536 505.654 355.113 517.167 372.397C528.68 389.681 551.684 394.127 568.549 382.328Z" stroke="#FD6824" stroke-width="4" stroke-miterlimit="10"/>
<path d="M718.508 282.979C714.377 279.047 711.476 273.948 710.172 268.326C708.869 262.704 709.221 256.813 711.185 251.396C713.148 245.98 716.635 241.281 721.204 237.896C725.773 234.51 731.219 232.589 736.853 232.375C742.488 232.162 748.057 233.665 752.858 236.696C757.658 239.726 761.474 244.148 763.823 249.401C766.171 254.654 766.948 260.503 766.053 266.208C765.158 271.913 762.633 277.218 758.796 281.452C756.249 284.265 753.187 286.536 749.783 288.135C746.38 289.734 742.702 290.63 738.961 290.772C735.219 290.914 731.487 290.299 727.978 288.961C724.468 287.624 721.25 285.592 718.508 282.979Z" stroke="#FD6824" stroke-width="4" stroke-miterlimit="10"/>
<path d="M855.948 422.077C856.95 409.958 848.175 399.301 836.35 398.275C824.524 397.249 814.126 406.242 813.125 418.361C812.124 430.48 820.898 441.137 832.724 442.163C844.549 443.19 854.947 434.197 855.948 422.077Z" stroke="#FD6824" stroke-width="4" stroke-miterlimit="10"/>
<path d="M836.316 454.302L851.196 476.845L843.324 517.449L885.944 549.918L888.903 534.657L865.827 506.172L883.666 493.943L901.515 481.714L918.382 514.461L933.262 517.493L920.283 464.716L880.664 456.648L865.795 434.106" stroke="#FD6824" stroke-width="4" stroke-miterlimit="10"/>
<path d="M577.225 -2.6619H646.333L604.231 142.234C592.893 181.277 572.528 207.339 539.831 215.274" stroke="#FD6824" stroke-width="4" stroke-miterlimit="10"/>
<path d="M511.918 186.777C550.284 186.777 574.731 161.611 586.425 121.384L622.469 -2.6619H577.225" stroke="#FD6824" stroke-width="4" stroke-miterlimit="10"/>
<path d="M317.896 -2.6619H576.145L534.054 142.234C520.405 189.223 491.844 218.594 447.021 218.594C402.208 218.594 373.593 189.19 359.988 142.234L317.896 -2.6619Z" stroke="#FD6824" stroke-width="4" stroke-miterlimit="10"/>
<path d="M476.912 160.02C484.629 142.012 476.64 121.002 459.069 113.093C441.498 105.185 420.998 113.372 413.281 131.38C405.564 149.388 413.553 170.398 431.124 178.306C448.695 186.215 469.195 178.028 476.912 160.02Z" stroke="#FD6824" stroke-width="4" stroke-miterlimit="10"/>
<path d="M522.306 361.752L525.437 367.54L532.326 365.481C533.812 367.157 535.551 368.576 537.477 369.687L537.067 377.201L543.265 379.027L546.807 372.387C549.011 372.486 551.216 372.224 553.339 371.612L558.123 377.09L563.771 373.881L561.762 366.887C563.394 365.361 564.779 363.579 565.865 361.608L573.197 362.028L574.968 355.665L568.489 352.046C568.587 349.784 568.331 347.52 567.733 345.34L573.079 340.437L569.947 334.661L563.079 336.686C561.595 335.017 559.859 333.601 557.939 332.492L558.339 324.966L552.141 323.151L548.599 329.791C546.395 329.692 544.19 329.954 542.066 330.566L537.283 325.088L531.635 328.297L533.644 335.358C532.011 336.883 530.626 338.665 529.54 340.637L522.208 340.216L520.438 346.568L526.916 350.198C526.819 352.457 527.074 354.717 527.672 356.894L522.306 361.752ZM543.319 342.939C544.884 342.049 546.67 341.655 548.454 341.806C550.237 341.958 551.936 342.647 553.337 343.788C554.738 344.929 555.777 346.47 556.324 348.216C556.87 349.962 556.9 351.835 556.408 353.598C555.916 355.362 554.925 356.936 553.56 358.122C552.195 359.308 550.518 360.052 548.741 360.262C546.963 360.471 545.165 360.136 543.573 359.298C541.982 358.46 540.668 357.157 539.799 355.555C538.642 353.406 538.363 350.876 539.023 348.518C539.683 346.16 541.227 344.165 543.319 342.972V342.939Z" stroke="#FD6824" stroke-width="4" stroke-miterlimit="10"/>
<path d="M721.467 274.897L725.181 278.438L729.835 275.118C731.344 275.996 732.981 276.62 734.684 276.966L736.174 282.688L741.238 282.489L742.318 276.679C743.991 276.207 745.577 275.46 747.015 274.465L751.896 277.365L755.341 273.558L752.166 268.788C753.019 267.239 753.627 265.562 753.969 263.819L759.541 262.292L759.358 257.102L753.688 255.995C753.217 254.285 752.489 252.661 751.529 251.181L754.347 246.179L750.633 242.649L745.979 245.902C744.468 245.026 742.832 244.403 741.13 244.054L739.651 238.344L734.586 238.532L733.507 244.342C731.837 244.823 730.252 245.569 728.81 246.555L723.929 243.667L720.473 247.474L723.713 252.243C722.854 253.789 722.245 255.467 721.909 257.212L716.327 258.728L716.521 263.919L722.19 265.025C722.65 266.74 723.379 268.366 724.35 269.839L721.467 274.897ZM732.686 255.608C733.644 254.551 734.885 253.809 736.254 253.476C737.623 253.143 739.058 253.233 740.377 253.734C741.695 254.236 742.84 255.128 743.664 256.296C744.489 257.464 744.958 258.857 745.01 260.298C745.063 261.739 744.698 263.163 743.961 264.391C743.224 265.62 742.148 266.597 740.87 267.198C739.591 267.8 738.167 268 736.778 267.773C735.389 267.546 734.096 266.902 733.064 265.922C731.681 264.605 730.864 262.779 730.793 260.845C730.722 258.911 731.403 257.027 732.686 255.608Z" stroke="#FD6824" stroke-width="4" stroke-miterlimit="10"/>
<path d="M785.996 318.193L768.989 291.158" stroke="#FD6824" stroke-width="4" stroke-miterlimit="10"/>
<path d="M754.747 300.188L772.466 327.135" stroke="#FD6824" stroke-width="4" stroke-miterlimit="10"/>
<path d="M698.564 277.856C698.564 277.856 586.263 315.239 603.54 382.69" stroke="#FD6824" stroke-width="4" stroke-miterlimit="10"/>
<path d="M1470.12 1308.11C1470.12 1308.11 1268.6 993.813 1196.22 978.928C1123.84 964.043 1022.48 1024.64 977.61 1015.39C955.236 1010.78 926.967 993.558 892.542 976.847C857.923 960.048 817.171 943.736 801.028 935.901C768.817 920.33 680.401 819.701 688.727 807.019C710.809 773.409 764.821 834.287 764.821 834.287C764.821 834.287 786.051 843.926 803.317 859.264" stroke="#FD6824" stroke-width="4" stroke-miterlimit="10"/>
<path d="M1607.26 1146.74C1607.26 1146.74 1303.77 844.49 1199.79 810.981C1095.82 777.471 989.434 829.595 949.027 831.321C908.62 833.047 812.117 815.75 803.921 854.561C796.676 888.868 857.469 899.768 898.632 898.13C990.319 894.489 1045.15 931.419 1045.15 931.419" stroke="#FD6824" stroke-width="4" stroke-miterlimit="10"/>
<path d="M978.074 905.346C978.074 905.346 953.487 920.574 957.342 946.779" stroke="#FD6824" stroke-width="4" stroke-miterlimit="10"/>
<path d="M835.884 831.742C822.224 816.015 805.817 803.044 787.508 793.495C787.508 793.495 755.664 737.432 721.413 752.759C702.527 761.214 752.177 821.682 752.177 821.682" stroke="#FD6824" stroke-width="4" stroke-miterlimit="10"/>
<path d="M864.715 828.953C855.547 799.781 844.933 785.085 844.933 785.085C844.933 785.085 844.933 716.848 807.323 723.266C794.268 725.48 806.146 804.872 806.146 804.872" stroke="#FD6824" stroke-width="4" stroke-miterlimit="10"/>
<path d="M904.301 829.916C898.73 818.959 891.742 808.822 883.526 799.781C883.526 799.781 885.944 744.448 857.47 744.448C847.935 744.448 849.976 793.418 849.976 793.418" stroke="#FD6824" stroke-width="4" stroke-miterlimit="10"/>
<path d="M854.392 840.905C860.482 846.438 858.366 878.908 852.351 883.677C846.337 888.447 811.437 878.786 811.437 858.457C811.437 838.127 848.302 835.394 854.392 840.905Z" stroke="#FD6824" stroke-width="4" stroke-miterlimit="10"/>
<path d="M843.745 529.744V637.356L934.687 691.162L1025.62 637.356V529.744L934.687 475.927" stroke="#FD6824" stroke-width="4" stroke-miterlimit="10"/>
<path d="M822.246 467.881L780.727 492.449V674.639L934.687 765.74L1088.64 674.639V492.449L934.687 401.348L882.737 432.08" stroke="black" stroke-width="4" stroke-miterlimit="10"/>
<path d="M945.502 403.147C946.465 397.047 942.42 391.302 936.468 390.315C930.516 389.328 924.911 393.473 923.948 399.573C922.985 405.673 927.029 411.418 932.981 412.404C938.933 413.391 944.539 409.246 945.502 403.147Z" stroke="#FD6824" stroke-width="4" stroke-miterlimit="10"/>
<path d="M1092.82 502.788C1098.39 500.423 1101.04 493.878 1098.73 488.169C1096.42 482.46 1090.04 479.749 1084.47 482.114C1078.9 484.479 1076.25 491.024 1078.56 496.732C1080.87 502.441 1087.25 505.152 1092.82 502.788Z" stroke="#FD6824" stroke-width="4" stroke-miterlimit="10"/>
<path d="M1088.65 685.828C1094.68 685.828 1099.56 680.818 1099.56 674.639C1099.56 668.46 1094.68 663.451 1088.65 663.451C1082.62 663.451 1077.73 668.46 1077.73 674.639C1077.73 680.818 1082.62 685.828 1088.65 685.828Z" stroke="#FD6824" stroke-width="4" stroke-miterlimit="10"/>
<path d="M791.033 495.861C792.907 489.988 789.78 483.669 784.05 481.749C778.319 479.828 772.154 483.032 770.28 488.905C768.406 494.778 771.532 501.096 777.263 503.017C782.994 504.938 789.158 501.734 791.033 495.861Z" stroke="#FD6824" stroke-width="4" stroke-miterlimit="10"/>
<path d="M780.716 685.828C786.745 685.828 791.633 680.818 791.633 674.639C791.633 668.46 786.745 663.451 780.716 663.451C774.687 663.451 769.799 668.46 769.799 674.639C769.799 680.818 774.687 685.828 780.716 685.828Z" stroke="#FD6824" stroke-width="4" stroke-miterlimit="10"/>
<path d="M938.82 776.224C944.397 773.874 947.059 767.336 944.766 761.621C942.473 755.906 936.094 753.178 930.518 755.528C924.942 757.878 922.28 764.415 924.572 770.13C926.865 775.845 933.244 778.573 938.82 776.224Z" stroke="#FD6824" stroke-width="4" stroke-miterlimit="10"/>
<path d="M985.438 587.6V575.294L972.416 572.262C971.472 568.161 969.894 564.242 967.74 560.653L975.029 548.8L966.542 540.091L954.966 547.561C951.466 545.359 947.646 543.741 943.649 542.769L940.691 529.423H928.683L925.725 542.769C921.725 543.741 917.901 545.359 914.397 547.561L902.833 540.091L894.334 548.8L901.623 560.653C899.474 564.244 897.896 568.163 896.947 572.262L883.925 575.294V587.6L896.947 590.632C897.898 594.727 899.477 598.642 901.623 602.23L894.334 614.094L902.833 622.792L914.397 615.322C917.899 617.529 921.723 619.147 925.725 620.114L928.683 633.46H940.691L943.649 620.114C947.647 619.147 951.468 617.529 954.966 615.322L966.542 622.792L975.029 614.094L967.74 602.23C969.892 598.644 971.47 594.729 972.416 590.632L985.438 587.6ZM934.687 598.667C931.352 598.669 928.092 597.657 925.318 595.76C922.545 593.863 920.383 591.165 919.106 588.008C917.828 584.851 917.494 581.376 918.144 578.024C918.794 574.672 920.399 571.593 922.757 569.176C925.115 566.76 928.12 565.114 931.39 564.448C934.661 563.782 938.051 564.125 941.132 565.434C944.212 566.743 946.845 568.959 948.696 571.801C950.547 574.644 951.534 577.985 951.532 581.403C951.538 583.674 951.106 585.923 950.262 588.023C949.418 590.123 948.178 592.031 946.614 593.639C945.049 595.247 943.19 596.522 941.143 597.393C939.097 598.263 936.903 598.711 934.687 598.711V598.667Z" stroke="#FD6824" stroke-width="4" stroke-miterlimit="10"/>
</svg>
