<svg width="24" height="24" viewBox="0 0 24 24" fill="none" xmlns="http://www.w3.org/2000/svg">
<g clip-path="url(#clip0_527_806)">
<g clip-path="url(#clip1_527_806)">
<path d="M20.447 20.452H16.893V14.883C16.893 13.555 16.866 11.846 15.041 11.846C13.188 11.846 12.905 13.291 12.905 14.785V20.452H9.351V9H12.765V10.561H12.811C13.288 9.661 14.448 8.711 16.181 8.711C19.782 8.711 20.448 11.081 20.448 14.166L20.447 20.452ZM5.337 7.433C4.193 7.433 3.274 6.507 3.274 5.368C3.274 4.23 4.194 3.305 5.337 3.305C6.477 3.305 7.401 4.23 7.401 5.368C7.401 6.507 6.476 7.433 5.337 7.433ZM7.119 20.452H3.555V9H7.119V20.452ZM22 0H2C1.021 0 0 1.045 0 2V22C0 22.956 1.021 24 2 24H22C22.978 24 24 22.956 24 22V2C24 1.045 22.978 0 22 0Z" fill="black"/>
</g>
</g>
<defs>
<clipPath id="clip0_527_806">
<rect width="24" height="24" fill="white"/>
</clipPath>
<clipPath id="clip1_527_806">
<rect width="24" height="24" fill="white"/>
</clipPath>
</defs>
</svg>
