<svg width="102" height="97" viewBox="0 0 102 97" fill="none" xmlns="http://www.w3.org/2000/svg">
<path d="M46.8837 94.999C34.4494 94.999 22.5243 90.1207 13.7319 81.4371C4.93952 72.7535 0 60.9761 0 48.6957C0 36.4153 4.93952 24.6378 13.7319 15.9543C22.5243 7.27071 34.4494 2.39234 46.8837 2.39234L46.9228 6.03046C35.5468 6.15815 24.6806 10.7109 16.6819 18.7009C8.6832 26.6909 4.19717 37.4736 4.19717 48.7095C4.19717 59.9454 8.6832 70.7281 16.6819 78.7181C24.6806 86.7081 35.5468 91.2608 46.9228 91.3885L46.8837 94.999Z" fill="black"/>
<path d="M64.5544 38.2885H42.3963C41.9078 38.2885 41.4393 38.0968 41.0939 37.7557C40.7485 37.4145 40.5544 36.9518 40.5544 36.4694C40.5544 35.987 40.7485 35.5243 41.0939 35.1831C41.4393 34.842 41.9078 34.6503 42.3963 34.6503H62.7126V15.3242C62.7126 14.8418 62.9066 14.3791 63.252 14.0379C63.5974 13.6968 64.0659 13.5051 64.5544 13.5051C65.0429 13.5051 65.5114 13.6968 65.8568 14.0379C66.2022 14.3791 66.3963 14.8418 66.3963 15.3242V36.4694C66.3963 36.9518 66.2022 37.4145 65.8568 37.7557C65.5114 38.0968 65.0429 38.2885 64.5544 38.2885Z" fill="black"/>
<path d="M86.0428 44.5119H35.6372C35.1487 44.5119 34.6802 44.3202 34.3348 43.9791C33.9894 43.6379 33.7954 43.1752 33.7954 42.6928C33.7954 42.2103 33.9894 41.7477 34.3348 41.4065C34.6802 41.0654 35.1487 40.8737 35.6372 40.8737H84.1954V34.0715C84.1954 33.5891 84.3894 33.1264 84.7348 32.7853C85.0802 32.4441 85.5487 32.2525 86.0372 32.2525C86.5257 32.2525 86.9942 32.4441 87.3396 32.7853C87.685 33.1264 87.8791 33.5891 87.8791 34.0715V42.6928C87.8791 43.1743 87.6858 43.6361 87.3416 43.9771C86.9974 44.3181 86.5303 44.5104 86.0428 44.5119Z" fill="black"/>
<path d="M91.9702 60.6629H34.8949C34.6322 60.698 34.3649 60.6771 34.111 60.6018C33.8571 60.5264 33.6225 60.3983 33.4229 60.226C33.2233 60.0537 33.0633 59.8412 32.9537 59.6028C32.8441 59.3645 32.7874 59.1057 32.7874 58.8438C32.7874 58.582 32.8441 58.3232 32.9537 58.0848C33.0633 57.8465 33.2233 57.634 33.4229 57.4617C33.6225 57.2894 33.8571 57.1613 34.111 57.0859C34.3649 57.0106 34.6322 56.9897 34.8949 57.0248H91.9702C92.2329 56.9897 92.5002 57.0106 92.7541 57.0859C93.008 57.1613 93.2426 57.2894 93.4422 57.4617C93.6418 57.634 93.8018 57.8465 93.9114 58.0848C94.0211 58.3232 94.0778 58.582 94.0778 58.8438C94.0778 59.1057 94.0211 59.3645 93.9114 59.6028C93.8018 59.8412 93.6418 60.0537 93.4422 60.226C93.2426 60.3983 93.008 60.5264 92.7541 60.6018C92.5002 60.6771 92.2329 60.698 91.9702 60.6629Z" fill="black"/>
<path d="M67.5516 79.1181C67.0631 79.1181 66.5947 78.9264 66.2492 78.5853C65.9038 78.2442 65.7098 77.7815 65.7098 77.299V67.2446H42.4521C41.9636 67.2446 41.4951 67.0529 41.1497 66.7118C40.8043 66.3707 40.6102 65.908 40.6102 65.4255C40.6102 64.9431 40.8043 64.4804 41.1497 64.1393C41.4951 63.7981 41.9636 63.6065 42.4521 63.6065H67.5684C68.0574 63.6065 68.5264 63.7979 68.8727 64.1389C69.2191 64.4799 69.4143 64.9426 69.4158 65.4255V75.48H75.0977C75.5862 75.48 76.0547 75.6716 76.4001 76.0128C76.7455 76.3539 76.9395 76.8166 76.9395 77.299C76.9395 77.7815 76.7455 78.2442 76.4001 78.5853C76.0547 78.9264 75.5862 79.1181 75.0977 79.1181H67.5516Z" fill="black"/>
<path d="M51.2875 92.954C51.2875 93.3901 51.1565 93.8164 50.9112 94.179C50.6659 94.5416 50.3172 94.8242 49.9092 94.9911C49.5013 95.158 49.0524 95.2016 48.6193 95.1165C48.1863 95.0315 47.7885 94.8215 47.4762 94.5131C47.164 94.2047 46.9514 93.8119 46.8652 93.3841C46.7791 92.9564 46.8233 92.5131 46.9923 92.1102C47.1613 91.7073 47.4474 91.3629 47.8145 91.1207C48.1817 90.8784 48.6133 90.7491 49.0549 90.7491C49.647 90.7491 50.2149 90.9814 50.6336 91.3949C51.0522 91.8084 51.2875 92.3692 51.2875 92.954Z" fill="black"/>
<path d="M49.0326 97C48.2223 97 47.4302 96.7627 46.7565 96.3181C46.0828 95.8735 45.5577 95.2416 45.2477 94.5023C44.9376 93.763 44.8565 92.9495 45.0145 92.1646C45.1726 91.3798 45.5628 90.6588 46.1357 90.093C46.7087 89.5271 47.4386 89.1418 48.2333 88.9857C49.028 88.8296 49.8517 88.9097 50.6003 89.2159C51.3489 89.5222 51.9887 90.0407 52.4389 90.7061C52.889 91.3715 53.1293 92.1537 53.1293 92.954C53.1278 94.0266 52.6957 95.0549 51.9278 95.8133C51.1598 96.5718 50.1186 96.9985 49.0326 97ZM49.0326 92.5461C48.923 92.5461 48.818 92.589 48.7405 92.6655C48.6631 92.742 48.6195 92.8458 48.6195 92.954C48.6195 93.0621 48.6631 93.1659 48.7405 93.2424C48.818 93.3189 48.923 93.3619 49.0326 93.3619C49.1421 93.3619 49.2472 93.3189 49.3246 93.2424C49.4021 93.1659 49.4456 93.0621 49.4456 92.954C49.4456 92.8458 49.4021 92.742 49.3246 92.6655C49.2472 92.589 49.1421 92.5461 49.0326 92.5461Z" fill="black"/>
<path d="M51.2875 4.04603C51.2875 4.48213 51.1565 4.90842 50.9112 5.27102C50.6659 5.63362 50.3172 5.91623 49.9092 6.08312C49.5013 6.25 49.0524 6.29366 48.6193 6.20859C48.1863 6.12351 47.7885 5.91351 47.4762 5.60515C47.164 5.29678 46.9514 4.9039 46.8652 4.47619C46.7791 4.04848 46.8233 3.60514 46.9923 3.20224C47.1613 2.79935 47.4474 2.45499 47.8145 2.21271C48.1817 1.97043 48.6133 1.84111 49.0549 1.84111C49.647 1.84111 50.2149 2.07341 50.6336 2.48692C51.0522 2.90042 51.2875 3.46125 51.2875 4.04603Z" fill="black"/>
<path d="M49.0326 8.09206C48.2223 8.09206 47.4302 7.85477 46.7565 7.41018C46.0828 6.9656 45.5577 6.3337 45.2477 5.59438C44.9376 4.85507 44.8565 4.04154 45.0145 3.25669C45.1726 2.47184 45.5628 1.7509 46.1357 1.18506C46.7087 0.619208 47.4386 0.233862 48.2333 0.0777454C49.028 -0.0783716 49.8517 0.00175238 50.6003 0.307987C51.3489 0.614221 51.9887 1.13281 52.4389 1.79818C52.889 2.46354 53.1293 3.24581 53.1293 4.04603C53.1293 5.11911 52.6977 6.14823 51.9294 6.90701C51.1611 7.66579 50.1191 8.09206 49.0326 8.09206ZM49.0326 3.63812C48.9509 3.63812 48.871 3.66205 48.8031 3.70687C48.7352 3.75169 48.6822 3.8154 48.651 3.88993C48.6197 3.96447 48.6115 4.04649 48.6275 4.12561C48.6434 4.20474 48.6827 4.27742 48.7405 4.33447C48.7983 4.39152 48.8719 4.43037 48.952 4.44611C49.0321 4.46184 49.1151 4.45377 49.1906 4.42289C49.2661 4.39202 49.3306 4.33974 49.376 4.27266C49.4214 4.20557 49.4456 4.12671 49.4456 4.04603C49.4456 3.93785 49.4021 3.83409 49.3246 3.7576C49.2472 3.6811 49.1421 3.63812 49.0326 3.63812Z" fill="black"/>
<path d="M23.8437 59.0974C22.8737 59.0867 21.9127 58.9114 21.0028 58.5793C15.2763 56.5893 9.63349 49.3076 8.98605 45.6088C8.74047 44.1921 7.78047 43.7897 5.29675 43.0842C4.42141 42.8541 3.56196 42.5687 2.72372 42.2298C2.502 42.1338 2.30158 41.9957 2.1339 41.8233C1.96622 41.6509 1.83458 41.4476 1.74647 41.2249C1.65836 41.0023 1.61552 40.7646 1.6204 40.5256C1.62527 40.2866 1.67777 40.0509 1.77489 39.8319C1.872 39.6129 2.01184 39.415 2.18641 39.2494C2.36099 39.0838 2.56688 38.9538 2.79233 38.8667C3.01778 38.7797 3.25838 38.7374 3.50039 38.7422C3.7424 38.7471 3.98107 38.7989 4.20279 38.8948C4.89275 39.1691 5.59922 39.4011 6.31814 39.5894C8.69582 40.2674 11.9553 41.1934 12.6195 44.9859C13.0381 47.3783 17.7488 53.5906 22.2251 55.1506C24.0056 55.768 24.9544 55.3325 25.5181 54.886C25.4233 53.9489 23.6595 51.5345 22.5823 50.0683C20.2716 46.9042 18.2679 44.1701 19.066 41.7612C19.261 41.2079 19.5913 40.7106 20.0274 40.3135C20.4636 39.9164 20.9923 39.6317 21.5665 39.4846C23.1779 38.9304 24.89 38.72 26.5898 38.8673C27.5554 38.9279 27.8121 38.9444 29.6261 36.1497C32.1042 32.3297 36.7088 31.3099 40.0744 30.5602C41.2967 30.2901 43.1107 29.8877 43.5684 29.4963C43.5181 28.4821 42.4521 27.126 40.9563 26.189C39.4605 25.2519 37.0995 24.4857 35.1461 25.3566C31.2391 27.0985 27.8233 25.8417 26.5898 23.7801C25.7302 22.3414 25.8084 20.1861 27.9237 18.6151C29.3693 17.5457 30.2958 15.8589 30.4019 15.1037C30.0622 15.0949 29.7229 15.1283 29.3916 15.2029C26.3114 15.8315 23.1127 15.5653 20.1823 14.4367C19.9588 14.3455 19.7556 14.2117 19.5844 14.043C19.4132 13.8742 19.2774 13.6738 19.1846 13.4532C19.0918 13.2326 19.0439 12.9961 19.0437 12.7572C19.0435 12.5183 19.0909 12.2817 19.1833 12.0609C19.2756 11.8401 19.4111 11.6395 19.582 11.4704C19.7528 11.3013 19.9558 11.1671 20.1791 11.0755C20.4025 10.9839 20.642 10.9366 20.8839 10.9364C21.1257 10.9362 21.3653 10.983 21.5888 11.0742C23.8418 11.9156 26.2905 12.1068 28.6493 11.6255C32.0763 10.9474 33.3209 12.4633 33.7563 13.428C34.9507 16.0629 32.4056 19.8167 30.1172 21.5145C29.9516 21.615 29.8166 21.7579 29.7265 21.9279C29.8689 22.0871 30.0465 22.2116 30.2456 22.2918C30.5693 22.4406 31.7749 22.843 33.5944 22.0327C36.3851 20.7814 39.8791 21.1893 42.9154 23.1351C45.5665 24.8274 47.213 27.3024 47.213 29.5956C47.213 32.7155 43.8307 33.4542 40.8447 34.1322C37.8586 34.8102 34.3479 35.5764 32.6847 38.1341C30.134 42.0699 28.8558 42.6818 26.3107 42.5164C25.0788 42.4037 23.8369 42.558 22.6716 42.9684L22.5488 43.0125C22.6381 43.9827 24.5135 46.5514 25.5405 47.9736C28.1247 51.5015 30.7926 55.1396 28.0633 57.5374C26.9003 58.5546 25.3971 59.1103 23.8437 59.0974Z" fill="black"/>
<path d="M20.4893 86.2731C20.0861 86.2751 19.6936 86.1453 19.373 85.9038C17.4642 84.4761 14.3498 80.5568 16.3479 75.9375C17.8214 72.4923 20.093 70.9213 21.9293 69.6535C22.7259 69.152 23.4602 68.56 24.1172 67.8895C24.7033 67.2225 25.1665 65.9823 25.613 64.7806C26.4726 62.4765 27.5442 59.6101 30.4409 59.5053C32.6233 59.4392 34.147 61.2968 35.9163 63.4632C37.5907 65.5303 39.4995 67.873 42.0558 68.788C43.1139 69.1093 44.2094 69.2945 45.3154 69.3393C46.7888 69.455 48.3181 69.5763 49.5684 70.3039C49.9895 70.5488 50.2949 70.9489 50.4174 71.4161C50.5398 71.8834 50.4694 72.3796 50.2214 72.7955C49.9735 73.2114 49.5684 73.513 49.0953 73.634C48.6221 73.7549 48.1198 73.6853 47.6986 73.4404C47.1795 73.1372 46.08 73.049 45.0195 72.9664C43.5839 72.9097 42.1626 72.6612 40.7944 72.2277C37.2726 70.9599 34.9284 68.0825 33.0419 65.7673C32.2381 64.7806 31.0214 63.2868 30.5191 63.16C30.1451 63.16 29.4028 65.1995 29.0679 66.065C28.5098 67.5698 27.9516 69.1298 26.8967 70.2984C26.0478 71.1976 25.0899 71.99 24.0447 72.6577C22.3702 73.8042 20.813 74.8957 19.7526 77.3707C18.3851 80.5678 21.5721 82.9988 21.6056 83.0263C21.9133 83.2567 22.1399 83.5767 22.2535 83.9411C22.367 84.3056 22.3617 84.6961 22.2383 85.0574C22.1149 85.4187 21.8797 85.7326 21.5658 85.9547C21.252 86.1768 20.8754 86.2959 20.4893 86.2951V86.2731Z" fill="black"/>
<path d="M38.2102 18.6867C37.9684 18.6867 37.7288 18.6397 37.5054 18.5482C37.2819 18.4568 37.0789 18.3228 36.9078 18.1539C36.7368 17.985 36.6011 17.7845 36.5086 17.5638C36.416 17.3431 36.3684 17.1065 36.3684 16.8677V10.9199C36.3684 10.4374 36.5624 9.97474 36.9078 9.6336C37.2533 9.29246 37.7217 9.10081 38.2102 9.10081C38.6987 9.10081 39.1672 9.29246 39.5126 9.6336C39.858 9.97474 40.0521 10.4374 40.0521 10.9199V16.8677C40.0521 17.3501 39.858 17.8128 39.5126 18.1539C39.1672 18.4951 38.6987 18.6867 38.2102 18.6867Z" fill="black"/>
<path d="M43.4344 21.4098C43.1926 21.4098 42.953 21.3627 42.7296 21.2713C42.5061 21.1799 42.3031 21.0459 42.132 20.877C41.961 20.7081 41.8253 20.5076 41.7328 20.2869C41.6402 20.0662 41.5926 19.8296 41.5926 19.5907V10.9199C41.5926 10.4374 41.7866 9.97474 42.132 9.6336C42.4775 9.29246 42.9459 9.10081 43.4344 9.10081C43.9229 9.10081 44.3914 9.29246 44.7368 9.6336C45.0822 9.97474 45.2763 10.4374 45.2763 10.9199V19.5907C45.2763 20.0732 45.0822 20.5359 44.7368 20.877C44.3914 21.2181 43.9229 21.4098 43.4344 21.4098Z" fill="black"/>
<path d="M48.9042 26.0787C48.4157 26.0787 47.9472 25.8871 47.6018 25.5459C47.2564 25.2048 47.0623 24.7421 47.0623 24.2596V10.9199C47.0623 10.4374 47.2564 9.97474 47.6018 9.6336C47.9472 9.29246 48.4157 9.10081 48.9042 9.10081C49.3927 9.10081 49.8612 9.29246 50.2066 9.6336C50.552 9.97474 50.746 10.4374 50.746 10.9199V24.2596C50.746 24.7421 50.552 25.2048 50.2066 25.5459C49.8612 25.8871 49.3927 26.0787 48.9042 26.0787Z" fill="black"/>
<path d="M45.5665 79.1126H36.8205C36.332 79.1126 35.8635 78.9209 35.5181 78.5798C35.1727 78.2386 34.9786 77.776 34.9786 77.2935C34.9786 76.8111 35.1727 76.3484 35.5181 76.0073C35.8635 75.6661 36.332 75.4745 36.8205 75.4745H45.5665C46.055 75.4745 46.5235 75.6661 46.8689 76.0073C47.2143 76.3484 47.4084 76.8111 47.4084 77.2935C47.4084 77.776 47.2143 78.2386 46.8689 78.5798C46.5235 78.9209 46.055 79.1126 45.5665 79.1126Z" fill="black"/>
<path d="M49.9591 83.9414H42.653C42.4111 83.9414 42.1716 83.8943 41.9482 83.8029C41.7247 83.7115 41.5217 83.5775 41.3506 83.4086C41.1796 83.2397 41.0439 83.0391 40.9514 82.8184C40.8588 82.5977 40.8112 82.3612 40.8112 82.1223C40.8112 81.8834 40.8588 81.6469 40.9514 81.4262C41.0439 81.2055 41.1796 81.005 41.3506 80.836C41.5217 80.6671 41.7247 80.5331 41.9482 80.4417C42.1716 80.3503 42.4111 80.3033 42.653 80.3033H49.9591C50.4476 80.3033 50.916 80.4949 51.2615 80.836C51.6069 81.1772 51.8009 81.6399 51.8009 82.1223C51.8009 82.6048 51.6069 83.0674 51.2615 83.4086C50.916 83.7497 50.4476 83.9414 49.9591 83.9414Z" fill="black"/>
<path d="M45.0474 88.7701H37.7414C37.2529 88.7701 36.7844 88.5785 36.439 88.2374C36.0936 87.8962 35.8995 87.4335 35.8995 86.9511C35.8995 86.4686 36.0936 86.006 36.439 85.6648C36.7844 85.3237 37.2529 85.132 37.7414 85.132H45.0474C45.5359 85.132 46.0044 85.3237 46.3498 85.6648C46.6953 86.006 46.8893 86.4686 46.8893 86.9511C46.8893 87.4335 46.6953 87.8962 46.3498 88.2374C46.0044 88.5785 45.5359 88.7701 45.0474 88.7701Z" fill="black"/>
<path d="M64.627 15.7817C63.6335 15.7817 62.6623 15.4908 61.8362 14.9456C61.0101 14.4005 60.3663 13.6257 59.9861 12.7192C59.6059 11.8127 59.5064 10.8152 59.7002 9.8528C59.8941 8.89044 60.3725 8.00646 61.075 7.31264C61.7775 6.61882 62.6726 6.14633 63.647 5.95491C64.6214 5.76348 65.6314 5.86173 66.5493 6.23722C67.4672 6.61271 68.2517 7.24858 68.8037 8.06443C69.3556 8.88027 69.6502 9.83944 69.6502 10.8207C69.6502 12.1364 69.121 13.3983 68.179 14.3287C67.2369 15.259 65.9592 15.7817 64.627 15.7817ZM64.627 9.01813C64.2649 9.01813 63.911 9.12417 63.6099 9.32284C63.3088 9.52151 63.0742 9.80388 62.9356 10.1343C62.7971 10.4646 62.7608 10.8282 62.8315 11.1789C62.9021 11.5296 63.0765 11.8518 63.3325 12.1046C63.5885 12.3575 63.9147 12.5297 64.2698 12.5995C64.6249 12.6692 64.993 12.6334 65.3276 12.4966C65.6621 12.3597 65.948 12.128 66.1491 11.8307C66.3503 11.5333 66.4577 11.1838 66.4577 10.8262C66.4577 10.3466 66.2648 9.88676 65.9215 9.54769C65.5782 9.20862 65.1125 9.01813 64.627 9.01813Z" fill="black"/>
<path d="M86.1153 34.0385C85.1218 34.0385 84.1507 33.7475 83.3246 33.2024C82.4985 32.6573 81.8547 31.8824 81.4745 30.9759C81.0943 30.0694 80.9948 29.0719 81.1886 28.1096C81.3824 27.1472 81.8609 26.2632 82.5634 25.5694C83.2659 24.8756 84.1609 24.4031 85.1353 24.2117C86.1098 24.0202 87.1198 24.1185 88.0377 24.494C88.9555 24.8695 89.7401 25.5053 90.292 26.3212C90.844 27.137 91.1386 28.0962 91.1386 29.0774C91.1386 30.3932 90.6094 31.655 89.6673 32.5854C88.7253 33.5158 87.4476 34.0385 86.1153 34.0385ZM86.1153 27.2804C85.7533 27.2804 85.3993 27.3864 85.0983 27.5851C84.7972 27.7838 84.5626 28.0662 84.424 28.3965C84.2854 28.7269 84.2492 29.0904 84.3198 29.4412C84.3905 29.7919 84.5648 30.114 84.8209 30.3669C85.0769 30.6198 85.4031 30.792 85.7582 30.8617C86.1133 30.9315 86.4814 30.8957 86.8159 30.7588C87.1504 30.622 87.4364 30.3903 87.6375 30.0929C87.8387 29.7956 87.946 29.446 87.946 29.0884C87.946 28.6089 87.7532 28.149 87.4098 27.81C87.0665 27.4709 86.6009 27.2804 86.1153 27.2804Z" fill="black"/>
<path d="M96.9767 63.9648C95.9832 63.9648 95.0121 63.6738 94.186 63.1287C93.3599 62.5836 92.7161 61.8087 92.3359 60.9022C91.9557 59.9957 91.8562 58.9982 92.05 58.0358C92.2438 57.0735 92.7223 56.1895 93.4248 55.4957C94.1273 54.8019 95.0223 54.3294 95.9968 54.138C96.9712 53.9465 97.9812 54.0448 98.8991 54.4203C99.8169 54.7958 100.601 55.4316 101.153 56.2475C101.705 57.0633 102 58.0225 102 59.0037C102 60.3195 101.471 61.5813 100.529 62.5117C99.5867 63.4421 98.309 63.9648 96.9767 63.9648ZM96.9767 57.2012C96.6131 57.199 96.257 57.3035 95.9535 57.5014C95.6501 57.6994 95.413 57.9819 95.2723 58.313C95.1316 58.6442 95.0936 59.0092 95.1632 59.3617C95.2328 59.7142 95.4068 60.0384 95.6632 60.2931C95.9195 60.5479 96.2467 60.7217 96.6032 60.7926C96.9597 60.8635 97.3295 60.8282 97.6657 60.6913C98.0019 60.5543 98.2893 60.3219 98.4916 60.0234C98.6939 59.7249 98.8018 59.3739 98.8019 59.0147C98.8019 58.5356 98.6099 58.076 98.268 57.7362C97.926 57.3964 97.4618 57.2041 96.9767 57.2012Z" fill="black"/>
<path d="M78.9321 81.9735C77.9386 81.9735 76.9674 81.6825 76.1413 81.1374C75.3152 80.5922 74.6714 79.8174 74.2912 78.9109C73.911 78.0044 73.8115 77.0069 74.0053 76.0445C74.1992 75.0822 74.6776 74.1982 75.3801 73.5044C76.0826 72.8106 76.9777 72.3381 77.9521 72.1466C78.9265 71.9552 79.9365 72.0535 80.8544 72.429C81.7723 72.8044 82.5568 73.4403 83.1088 74.2562C83.6607 75.072 83.9554 76.0312 83.9554 77.0124C83.9554 78.3281 83.4261 79.59 82.4841 80.5204C81.542 81.4508 80.2644 81.9735 78.9321 81.9735ZM78.9321 75.2099C78.57 75.2099 78.2161 75.3159 77.915 75.5146C77.614 75.7132 77.3793 75.9956 77.2407 76.326C77.1022 76.6564 77.0659 77.0199 77.1366 77.3706C77.2072 77.7214 77.3816 78.0435 77.6376 78.2964C77.8936 78.5492 78.2198 78.7214 78.5749 78.7912C78.9301 78.861 79.2981 78.8251 79.6327 78.6883C79.9672 78.5515 80.2531 78.3197 80.4543 78.0224C80.6554 77.7251 80.7628 77.3755 80.7628 77.0179C80.7628 76.5384 80.5699 76.0785 80.2266 75.7394C79.8833 75.4004 79.4176 75.2099 78.9321 75.2099Z" fill="black"/>
<path d="M34.2754 50.0903V53.3977C34.2755 53.4635 34.2959 53.5277 34.3337 53.5818C34.3716 53.6359 34.4252 53.6774 34.4874 53.7009C34.539 53.7213 34.5834 53.7562 34.6152 53.8013C34.6469 53.8463 34.6646 53.8996 34.666 53.9544C34.6782 54.0791 34.6782 54.2046 34.666 54.3293C34.666 54.3568 34.6158 54.3679 34.5433 54.3679H33.427C33.4036 54.37 33.3802 54.3641 33.3608 54.351C33.3415 54.3379 33.3274 54.3185 33.3209 54.2962C33.31 54.177 33.31 54.0571 33.3209 53.9379C33.3199 53.8995 33.3305 53.8617 33.3514 53.8293C33.3723 53.7969 33.4025 53.7713 33.4381 53.756C33.5833 53.6898 33.6558 53.6072 33.6558 53.519V48.0177C33.6598 47.9174 33.6485 47.817 33.6223 47.72C33.5951 47.648 33.5413 47.5889 33.4716 47.5547C33.4132 47.5277 33.3631 47.4858 33.3265 47.4334C33.2986 47.3537 33.2872 47.2694 33.293 47.1853C33.293 46.9703 33.3433 46.8601 33.4493 46.8601H34.6214L36.0502 50.4927V47.8137C36.0607 47.7368 36.042 47.6587 35.9977 47.5946C35.9534 47.5305 35.8866 47.4848 35.8102 47.4665C35.7439 47.437 35.6876 47.3892 35.6484 47.3286C35.6199 47.2302 35.6086 47.1277 35.6149 47.0255C35.5997 46.9714 35.5997 46.9142 35.6149 46.8601C35.6267 46.8473 35.6415 46.8375 35.6581 46.8317C35.6747 46.826 35.6924 46.8243 35.7098 46.827H36.8819C36.9488 46.827 36.9767 46.9373 36.9767 47.1357C36.9865 47.207 36.9865 47.2794 36.9767 47.3507C36.9586 47.3884 36.9267 47.4179 36.8874 47.4334C36.815 47.4572 36.751 47.5012 36.7033 47.5602C36.6733 47.61 36.6596 47.6678 36.6642 47.7255V54.3403H35.9442L34.2754 50.0903Z" fill="black"/>
<path d="M38.8633 51.077V52.9788C38.8514 53.1838 38.8978 53.3881 38.9972 53.5686C39.0292 53.6313 39.0777 53.6843 39.1376 53.7221C39.1975 53.76 39.2666 53.7812 39.3377 53.7835C39.4445 53.7874 39.5502 53.7609 39.6422 53.7071C39.7343 53.6534 39.8087 53.5747 39.8567 53.4804C39.9981 53.2315 40.0694 52.9498 40.0632 52.6645C40.0519 52.5506 40.0672 52.4355 40.1079 52.3283C40.1414 52.2897 40.2419 52.2732 40.4205 52.2732C40.52 52.2638 40.6202 52.2809 40.7107 52.3228C40.7622 52.3969 40.784 52.4872 40.7721 52.5764C40.7761 53.037 40.6271 53.4862 40.3479 53.8552C40.2204 54.029 40.0524 54.1698 39.8581 54.2658C39.6638 54.3618 39.4489 54.41 39.2316 54.4064C38.9544 54.3991 38.6837 54.3218 38.4453 54.1819C38.2069 54.042 38.0088 53.8441 37.8698 53.6072C37.4464 52.8785 37.2521 52.0419 37.3116 51.2038C37.2599 50.3586 37.4392 49.5152 37.8307 48.7618C37.9564 48.5121 38.1497 48.3017 38.3891 48.1538C38.6284 48.0059 38.9046 47.9264 39.187 47.924C39.4266 47.9256 39.6611 47.9923 39.8648 48.1167C40.0686 48.2412 40.2338 48.4186 40.3423 48.6295C40.6719 49.2461 40.8244 49.94 40.7833 50.636V51.0715L38.8633 51.077ZM39.4214 50.4927V48.9548C39.4214 48.6626 39.3265 48.5193 39.1367 48.5193C38.947 48.5193 38.8465 48.6626 38.8465 48.9548V50.4927H39.4214Z" fill="black"/>
<path d="M43.1107 49.7541L43.3786 49.1642L43.4233 49.0816C43.5062 48.948 43.563 48.8003 43.5907 48.6461C43.5907 48.602 43.5572 48.5579 43.4902 48.5193C43.4563 48.5018 43.4304 48.4723 43.4177 48.4366C43.4074 48.3506 43.4074 48.2636 43.4177 48.1775C43.4177 48.0893 43.4177 48.0342 43.4177 48.0177C43.4177 48.0011 43.4735 47.9901 43.546 47.9901H44.3777C44.4167 47.9901 44.4446 47.9901 44.4502 48.0397C44.46 48.1111 44.46 48.1834 44.4502 48.2547C44.4566 48.3336 44.4566 48.4129 44.4502 48.4917C44.4273 48.5239 44.3937 48.5473 44.3553 48.5579C44.2811 48.605 44.2243 48.6746 44.1935 48.7563L43.3674 50.625L44.266 53.5465C44.2951 53.6247 44.343 53.6947 44.4056 53.7505C44.4344 53.775 44.4574 53.8055 44.4728 53.8398C44.4883 53.8741 44.4958 53.9114 44.4949 53.9489V54.1915C44.4949 54.2631 44.4949 54.3072 44.4949 54.3238C44.4949 54.3403 44.4335 54.3238 44.3609 54.3238H42.8372C42.7646 54.3238 42.7144 54.3237 42.6921 54.2852C42.6616 54.2197 42.65 54.1472 42.6586 54.0757C42.6458 53.9954 42.6458 53.9135 42.6586 53.8332C42.6821 53.7818 42.7238 53.7406 42.7758 53.7174C42.7988 53.7094 42.8188 53.6944 42.8328 53.6746C42.8468 53.6549 42.8542 53.6313 42.8539 53.6072C42.8581 53.5687 42.8581 53.5299 42.8539 53.4914L42.5526 52.5047L42.2512 53.1166C42.1631 53.2696 42.0991 53.4351 42.0614 53.6072C42.0614 53.6384 42.0718 53.6688 42.091 53.6937C42.1101 53.7185 42.137 53.7365 42.1674 53.745C42.1981 53.7586 42.2237 53.7813 42.2407 53.8099C42.2577 53.8386 42.2653 53.8717 42.2623 53.9048V54.0812C42.278 54.1595 42.278 54.24 42.2623 54.3182C42.2623 54.3182 42.2121 54.3513 42.1451 54.3513H41.3247C41.2688 54.3513 41.2353 54.3513 41.2242 54.3513C41.2145 54.3077 41.2145 54.2626 41.2242 54.219V53.9379C41.2284 53.9115 41.2386 53.8863 41.254 53.8643C41.2695 53.8424 41.2898 53.8242 41.3135 53.8111C41.4061 53.7543 41.4798 53.6719 41.5256 53.5741L42.3293 51.7109L41.3916 48.839C41.3651 48.7417 41.3085 48.655 41.2298 48.591C41.1954 48.5643 41.1653 48.5327 41.1405 48.4972C41.114 48.3816 41.1046 48.2628 41.1126 48.1445C41.1076 48.1003 41.1174 48.0558 41.1405 48.0177C41.1728 47.9948 41.2127 47.9849 41.2521 47.9901H42.8149C42.8596 47.9844 42.905 47.9941 42.9433 48.0177C42.9553 48.0666 42.9553 48.1176 42.9433 48.1665V48.3429C42.9459 48.3772 42.9402 48.4116 42.9266 48.4432C42.913 48.4749 42.8919 48.5029 42.8651 48.5248C42.8335 48.5488 42.8079 48.5797 42.7905 48.6151C42.7731 48.6505 42.7642 48.6894 42.7647 48.7288C42.7622 48.7471 42.7622 48.7656 42.7647 48.7839L43.1107 49.7541Z" fill="black"/>
<path d="M45.0921 48.6295H44.9247C44.8744 48.6295 44.8465 48.6295 44.8353 48.6295C44.8242 48.6295 44.8353 48.5799 44.8353 48.5248V48.1886C44.8236 48.149 44.8236 48.1069 44.8353 48.0673C44.8663 48.041 44.9062 48.0272 44.947 48.0287C45.1872 47.9725 45.4026 47.841 45.5609 47.6539C45.7533 47.4676 45.8821 47.2268 45.9293 46.9648C45.9349 46.9079 45.9541 46.8532 45.9851 46.805C46.0237 46.7822 46.0688 46.7725 46.1135 46.7774H46.4149C46.4874 46.7774 46.5265 46.8325 46.5265 46.9373V48.0177H46.7888C46.8096 48.0159 46.8305 48.0187 46.85 48.0259C46.8694 48.0331 46.8871 48.0445 46.9015 48.0593C46.916 48.0741 46.9269 48.0919 46.9335 48.1114C46.94 48.1309 46.9421 48.1516 46.9395 48.172V48.5083C46.9423 48.5285 46.9403 48.549 46.9337 48.5683C46.9271 48.5876 46.9161 48.6051 46.9015 48.6196C46.8869 48.634 46.8692 48.6448 46.8496 48.6514C46.8301 48.6579 46.8093 48.6598 46.7888 48.6571H46.5265V53.4749C46.5216 53.5466 46.538 53.6182 46.5737 53.6809C46.6094 53.7435 46.6628 53.7945 46.7274 53.8276C46.783 53.8533 46.8268 53.8985 46.8502 53.9544C46.8781 54.0417 46.8895 54.1332 46.8837 54.2245C46.8837 54.3054 46.8837 54.3495 46.8837 54.3568C46.851 54.3666 46.816 54.3666 46.7833 54.3568H45.4381C45.3297 54.2345 45.2472 54.092 45.1955 53.9377C45.1437 53.7834 45.1237 53.6204 45.1367 53.4583L45.0921 48.6295Z" fill="black"/>
<path d="M50.1991 53.8883C50.1031 54.0525 49.9659 54.1895 49.8007 54.2861C49.6354 54.3827 49.4478 54.4355 49.2558 54.4395C48.6977 54.4395 48.1954 54.0647 47.827 53.337C47.4384 52.5011 47.2476 51.5887 47.2688 50.6691C47.2272 49.6849 47.4445 48.7068 47.8995 47.8303C48.3181 47.1081 48.8149 46.7278 49.3842 46.7278C49.648 46.7233 49.9056 46.8068 50.1154 46.9648C50.1603 47.0007 50.2144 47.0236 50.2716 47.031C50.3219 47.031 50.3665 46.9814 50.4 46.8766C50.4078 46.8352 50.4298 46.7978 50.4623 46.7707C50.4949 46.7435 50.536 46.7284 50.5786 46.7278H50.7684C50.8577 46.7278 50.9135 46.816 50.9358 46.9373L51.2093 48.4146C51.2304 48.5163 51.2434 48.6195 51.2484 48.7233C51.2484 48.8335 51.1758 48.8886 51.0251 48.8886C50.9246 48.8995 50.8235 48.874 50.7405 48.817C50.6413 48.6616 50.5572 48.4973 50.4893 48.3264C50.3747 48.045 50.2227 47.7799 50.0372 47.5381C49.9887 47.4739 49.9266 47.421 49.8553 47.3829C49.784 47.3448 49.7051 47.3225 49.6242 47.3176C49.2391 47.3176 49.066 47.6539 49.066 48.3319V53.326C49.066 53.6954 49.1721 53.8773 49.3842 53.8773C49.5963 53.8773 49.7302 53.6954 49.7302 53.326V50.8951C49.7386 50.8353 49.7294 50.7744 49.7037 50.7197C49.6779 50.6649 49.6368 50.6187 49.5851 50.5864C49.5303 50.5579 49.4855 50.5137 49.4566 50.4596C49.4278 50.4055 49.4161 50.344 49.4233 50.2832C49.4121 50.1819 49.4275 50.0794 49.4679 49.9856C49.4679 49.9525 49.5516 49.936 49.6465 49.936H51.4381C51.4689 49.9315 51.5002 49.9337 51.5301 49.9423C51.5599 49.9508 51.5876 49.9656 51.6112 49.9856C51.6506 50.0581 51.6662 50.1409 51.6558 50.2226C51.6629 50.3099 51.6534 50.3978 51.6279 50.4817C51.6144 50.5076 51.5955 50.5303 51.5724 50.5484C51.5493 50.5664 51.5226 50.5794 51.494 50.5864C51.4443 50.6083 51.403 50.6451 51.3759 50.6917C51.3488 50.7383 51.3374 50.7921 51.3433 50.8455V54.004C51.3514 54.1227 51.3401 54.2418 51.3098 54.3568C51.3098 54.4064 51.2261 54.4285 51.1312 54.4285C51.0684 54.4399 51.0041 54.4399 50.9414 54.4285C50.8801 54.3988 50.8265 54.3554 50.7851 54.3017C50.6292 54.1162 50.4273 53.9737 50.1991 53.8883Z" fill="black"/>
<path d="M53.5312 51.077V52.9788C53.5193 53.1838 53.5657 53.3881 53.6651 53.5686C53.6966 53.6317 53.745 53.685 53.805 53.7229C53.865 53.7608 53.9344 53.7818 54.0056 53.7836C54.1115 53.7864 54.216 53.7593 54.3069 53.7056C54.3979 53.652 54.4714 53.5738 54.5191 53.4804C54.6628 53.2324 54.7342 52.9501 54.7256 52.6645C54.7179 52.5502 54.735 52.4356 54.7758 52.3283C54.7758 52.2897 54.9098 52.2732 55.0828 52.2732C55.1823 52.2638 55.2825 52.2809 55.373 52.3228C55.4245 52.3969 55.4464 52.4872 55.4344 52.5764C55.441 53.0374 55.2917 53.4874 55.0102 53.8552C54.8831 54.0293 54.7152 54.1704 54.5208 54.2664C54.3263 54.3624 54.1113 54.4105 53.894 54.4064C53.6159 54.3995 53.3443 54.3224 53.1049 54.1825C52.8656 54.0426 52.6665 53.8446 52.5265 53.6072C52.1056 52.8775 51.9115 52.0416 51.9684 51.2038C51.9167 50.3586 52.096 49.5152 52.4874 48.7618C52.6142 48.5129 52.8077 48.3031 53.0468 48.1554C53.286 48.0076 53.5616 47.9276 53.8437 47.924C54.0841 47.9252 54.3195 47.9917 54.5243 48.1161C54.729 48.2405 54.8952 48.4182 55.0047 48.6295C55.3305 49.2473 55.4809 49.9407 55.44 50.636V51.0715L53.5312 51.077ZM54.0893 50.4927V48.9548C54.0893 48.6626 53.9944 48.5193 53.8046 48.5193C53.6149 48.5193 53.52 48.6626 53.52 48.9548V50.4927H54.0893Z" fill="black"/>
<path d="M57.4605 48.624C57.5807 48.4237 57.749 48.2556 57.9504 48.1344C58.1519 48.0133 58.3804 47.943 58.6158 47.9295C58.7467 47.9226 58.8773 47.9477 58.9961 48.0025C59.1148 48.0573 59.2181 48.1401 59.2967 48.2437C59.4602 48.474 59.5425 48.7509 59.5312 49.0319V53.4859C59.5282 53.5293 59.5363 53.5728 59.5549 53.6123C59.5734 53.6518 59.6017 53.686 59.6372 53.7119C59.6986 53.756 59.7321 53.8662 59.7321 54.0481C59.7412 54.1341 59.7297 54.2209 59.6986 54.3017C59.6986 54.3017 59.6372 54.3458 59.5647 54.3458H58.3758C58.2908 54.267 58.2239 54.1711 58.1796 54.0646C58.1353 53.9581 58.1147 53.8435 58.1191 53.7284V49.3186C58.1191 49.076 58.0298 48.9603 57.8512 48.9603C57.7754 48.9662 57.7017 48.9874 57.6345 49.0224C57.5673 49.0575 57.5081 49.1058 57.4605 49.1642V53.5024C57.4597 53.555 57.4732 53.6068 57.4998 53.6524C57.5263 53.698 57.5648 53.7357 57.6112 53.7615C57.643 53.7846 57.668 53.8157 57.6837 53.8515C57.6994 53.8874 57.7052 53.9267 57.7005 53.9654V54.2025C57.7005 54.3072 57.6335 54.3623 57.494 54.3623H55.987C55.9144 54.3623 55.8642 54.3623 55.8474 54.3293C55.8185 54.2751 55.8068 54.2137 55.814 54.1529V53.982C55.8109 53.946 55.8163 53.9099 55.8299 53.8764C55.8434 53.8429 55.8648 53.813 55.8921 53.7891C55.9487 53.7513 55.9947 53.7001 56.0261 53.6402C56.0402 53.5396 56.0402 53.4376 56.0261 53.337V48.7839C56.0277 48.7347 56.0149 48.6862 55.9892 48.6441C55.9634 48.602 55.9258 48.5682 55.8809 48.5469C55.8543 48.5327 55.8326 48.5109 55.8186 48.4843C55.8047 48.4578 55.7992 48.4277 55.8028 48.398V48.1555C55.8028 48.0563 55.8419 48.0066 55.92 48.0066H57.3042C57.3435 48.0025 57.3831 48.0123 57.4158 48.0342C57.4242 48.0742 57.4242 48.1155 57.4158 48.1555L57.4605 48.624Z" fill="black"/>
<path d="M60.0167 47.2294V46.9814C60.0167 46.8877 60.0614 46.838 60.1563 46.838H62.1879C62.2405 46.8315 62.2938 46.8432 62.3386 46.8711C62.3689 46.9307 62.3806 46.9979 62.3721 47.0641C62.3862 47.1665 62.3862 47.2703 62.3721 47.3727C62.3626 47.3935 62.3479 47.4116 62.3293 47.4251C62.3108 47.4386 62.289 47.4472 62.266 47.4499C62.093 47.483 62.0037 47.6043 62.0037 47.8137V53.4087C62.0046 53.4679 62.0231 53.5256 62.0568 53.5746C62.0905 53.6236 62.1381 53.6617 62.1935 53.6843C62.2533 53.7089 62.3053 53.7489 62.3442 53.8001C62.3559 53.8583 62.3559 53.9183 62.3442 53.9765V54.1584C62.3442 54.2576 62.3442 54.3127 62.3442 54.3293C62.3001 54.3388 62.2544 54.3388 62.2102 54.3293H60.1395C60.0614 54.3293 60.0223 54.2962 60.0223 54.2245C60.0079 54.0889 60.0079 53.9522 60.0223 53.8166C60.0223 53.767 60.0837 53.7284 60.1675 53.7009C60.2315 53.6915 60.29 53.6596 60.3321 53.611C60.3742 53.5623 60.397 53.5002 60.3963 53.4363V47.924C60.4014 47.8251 60.3882 47.726 60.3572 47.6318C60.3183 47.5543 60.2502 47.4949 60.1675 47.4664C60.1174 47.4463 60.0733 47.4141 60.0391 47.3727C60.0196 47.3276 60.0119 47.2783 60.0167 47.2294Z" fill="black"/>
<path d="M64.2754 48.624C64.3956 48.4237 64.5639 48.2556 64.7653 48.1344C64.9668 48.0133 65.1953 47.943 65.4307 47.9295C65.5616 47.9226 65.6922 47.9477 65.811 48.0025C65.9297 48.0573 66.033 48.1401 66.1116 48.2437C66.2751 48.474 66.3574 48.7509 66.3461 49.0319V53.4859C66.3431 53.5293 66.3512 53.5728 66.3698 53.6123C66.3883 53.6518 66.4166 53.686 66.4521 53.7119C66.5135 53.756 66.547 53.8662 66.547 54.0481C66.5561 54.1341 66.5446 54.2209 66.5135 54.3017C66.5135 54.3017 66.4521 54.3458 66.3795 54.3458H65.1684C65.0834 54.267 65.0164 54.1711 64.9721 54.0646C64.9279 53.9581 64.9072 53.8435 64.9116 53.7284V49.3186C64.9116 49.076 64.8223 48.9603 64.6437 48.9603C64.568 48.9662 64.4943 48.9874 64.4271 49.0224C64.3599 49.0575 64.3007 49.1058 64.253 49.1642V53.5024C64.2522 53.555 64.2658 53.6068 64.2923 53.6524C64.3188 53.698 64.3573 53.7357 64.4037 53.7615C64.4356 53.7846 64.4606 53.8157 64.4763 53.8515C64.492 53.8874 64.4978 53.9267 64.493 53.9654V54.2025C64.493 54.3072 64.426 54.3623 64.2865 54.3623H62.7795C62.707 54.3623 62.6568 54.3623 62.64 54.3293C62.6136 54.2744 62.6039 54.2131 62.6121 54.1529V53.982C62.6083 53.9465 62.6129 53.9106 62.6255 53.8771C62.6381 53.8436 62.6583 53.8135 62.6847 53.7891C62.7412 53.7513 62.7873 53.7001 62.8186 53.6402C62.8421 53.5409 62.8515 53.4389 62.8465 53.337V48.7839C62.8482 48.7347 62.8354 48.6862 62.8096 48.6441C62.7839 48.602 62.7463 48.5682 62.7014 48.5469C62.6752 48.5321 62.654 48.5102 62.6401 48.4838C62.6262 48.4574 62.6204 48.4276 62.6233 48.398V48.1555C62.6233 48.0563 62.6623 48.0066 62.7405 48.0066H64.1247C64.1641 48.0015 64.204 48.0113 64.2363 48.0342C64.2447 48.0742 64.2447 48.1155 64.2363 48.1555L64.2754 48.624Z" fill="black"/>
<path d="M69.1089 48.4146V47.6043C69.1089 47.4665 69.0586 47.3948 68.9582 47.3838C68.8577 47.3727 68.8689 47.3838 68.8521 47.3397C68.83 47.2894 68.8204 47.2345 68.8242 47.1798V46.9979C68.8184 46.952 68.8283 46.9055 68.8521 46.8656C68.8938 46.8521 68.9388 46.8521 68.9805 46.8656H70.3367C70.3627 46.862 70.3892 46.864 70.4143 46.8717C70.4394 46.8793 70.4624 46.8923 70.4819 46.9097C70.5111 46.9677 70.5227 47.0328 70.5154 47.0971V53.53C70.5105 53.5912 70.5273 53.6521 70.563 53.7024C70.5986 53.7527 70.6508 53.7892 70.7107 53.8056C70.7416 53.8144 70.7685 53.8335 70.7868 53.8596C70.8051 53.8857 70.8137 53.9173 70.8112 53.9489V54.186C70.8112 54.2907 70.7721 54.3403 70.6884 54.3403H69.2093C69.1591 54.3403 69.1312 54.3403 69.12 54.3403C69.1088 54.2561 69.1088 54.1709 69.12 54.0867C69.12 54.0592 69.12 54.0206 69.12 53.9655C68.9069 54.227 68.5982 54.3953 68.2605 54.434C67.36 54.434 66.9116 53.4308 66.9154 51.4243C66.9154 49.9966 67.0326 49.0595 67.2726 48.6185C67.3468 48.4297 67.4749 48.2662 67.6413 48.1478C67.8078 48.0294 68.0054 47.9613 68.2102 47.9515C68.3836 47.966 68.5524 48.0144 68.7067 48.0939C68.8609 48.1734 68.9977 48.2824 69.1089 48.4146ZM69.1089 48.9658C69.018 48.8923 68.9075 48.8463 68.7907 48.8335C68.7431 48.8351 68.6968 48.8493 68.6566 48.8745C68.6164 48.8997 68.5837 48.935 68.5619 48.9768C68.5054 49.0781 68.4766 49.192 68.4781 49.3076V53.1662C68.4761 53.2688 68.5032 53.37 68.5563 53.4583C68.578 53.4933 68.6083 53.5222 68.6444 53.5425C68.6806 53.5627 68.7213 53.5736 68.7628 53.5741C68.8066 53.5723 68.8495 53.5615 68.8889 53.5426C68.9282 53.5236 68.9632 53.4968 68.9916 53.4638C69.0244 53.4397 69.0517 53.4091 69.0719 53.374C69.092 53.3389 69.1046 53.3 69.1089 53.2599V48.9658Z" fill="black"/>
<path d="M71.347 48.7012L71.2633 48.6626C71.2092 48.6442 71.1624 48.6095 71.1293 48.5634C71.1128 48.4964 71.1128 48.4264 71.1293 48.3594C71.1293 48.3043 71.1293 48.2547 71.1293 48.2216C71.1234 48.1573 71.135 48.0926 71.1628 48.0342C71.2089 47.9993 71.267 47.9835 71.3247 47.9901H72.6419C72.7088 47.9901 72.7479 47.9901 72.7647 48.0232C72.7739 48.0761 72.7739 48.1302 72.7647 48.1831V52.7638C72.7647 53.1662 72.8651 53.3646 73.0661 53.3646C73.1394 53.3662 73.2117 53.3467 73.2741 53.3086C73.3365 53.2704 73.3864 53.2152 73.4177 53.1496V48.85C73.4189 48.7966 73.4056 48.7439 73.3791 48.6973C73.3525 48.6508 73.3138 48.6121 73.267 48.5854C73.2461 48.5765 73.2277 48.5629 73.2132 48.5457C73.1986 48.5284 73.1884 48.5081 73.1833 48.4862C73.1723 48.367 73.1723 48.2471 73.1833 48.1279C73.1833 48.0397 73.2279 47.9901 73.3284 47.9901H74.7126C74.752 47.985 74.7919 47.9948 74.8242 48.0177C74.8333 48.0669 74.8333 48.1173 74.8242 48.1665V53.4969C74.8201 53.5402 74.8291 53.5836 74.8499 53.6219C74.8708 53.6601 74.9026 53.6914 74.9414 53.7119C74.9879 53.7422 75.0254 53.7843 75.0499 53.8337C75.0745 53.8831 75.0852 53.9381 75.0809 53.993C75.0976 54.0971 75.0976 54.2031 75.0809 54.3072C75.0809 54.3348 75.0251 54.3458 74.947 54.3458H73.6577C73.6278 54.3491 73.5976 54.3464 73.5688 54.3379C73.5401 54.3293 73.5133 54.3152 73.4902 54.2962C73.4514 54.2335 73.4357 54.1595 73.4456 54.0867V53.971C73.4456 53.8442 73.4456 53.7725 73.4456 53.7615C73.1563 54.1077 72.7499 54.3388 72.3014 54.412C72.1773 54.4152 72.054 54.3907 71.9409 54.34C71.8278 54.2894 71.7277 54.2141 71.6484 54.1198C71.4449 53.7892 71.3548 53.4025 71.3916 53.0173L71.347 48.7012Z" fill="black"/>
<path d="M77.6205 48.1004L77.8549 49.3902C77.8575 49.4251 77.8575 49.4601 77.8549 49.495C77.8549 49.5832 77.7823 49.6273 77.6261 49.6273C77.5491 49.6311 77.4723 49.616 77.4028 49.5832C77.3341 49.5205 77.2807 49.4432 77.2465 49.3572C77.1555 49.1805 77.051 49.011 76.934 48.85C76.8 48.6571 76.6716 48.5579 76.5656 48.5579C76.5421 48.5587 76.5191 48.5652 76.4987 48.5767C76.4783 48.5882 76.461 48.6045 76.4484 48.624C76.4186 48.6701 76.4031 48.7237 76.4037 48.7784C76.5398 49.2552 76.7487 49.7088 77.0233 50.1234C77.3061 50.6066 77.5488 51.1117 77.7489 51.6338C77.8816 52.032 77.9457 52.4493 77.9386 52.8685C77.963 53.2675 77.8616 53.6642 77.6484 54.004C77.5794 54.1224 77.4814 54.2218 77.3634 54.2931C77.2454 54.3644 77.1112 54.4052 76.973 54.412C76.7827 54.4037 76.6003 54.334 76.454 54.2135C76.3964 54.1632 76.3275 54.1273 76.253 54.1088C76.214 54.1088 76.1916 54.1419 76.1861 54.2135C76.1854 54.2705 76.168 54.3261 76.1358 54.3734C76.1358 54.4009 76.0409 54.412 75.9126 54.412C75.8801 54.4166 75.8469 54.4145 75.8153 54.406C75.7836 54.3975 75.754 54.3826 75.7284 54.3623C75.6922 54.3163 75.6709 54.2606 75.667 54.2025L75.4549 52.9016C75.4549 52.8409 75.4549 52.8024 75.4549 52.7858C75.4549 52.7693 75.5498 52.659 75.7395 52.659C75.8107 52.6521 75.8824 52.6655 75.9461 52.6976C76.0101 52.7683 76.0594 52.8507 76.0912 52.9402C76.3144 53.4473 76.5209 53.7009 76.7163 53.7009C76.9116 53.7009 76.9116 53.6182 76.9116 53.4473C76.8999 53.256 76.8506 53.0688 76.7665 52.8961C76.6716 52.6756 76.4874 52.3118 76.2084 51.7936C75.9662 51.3652 75.7572 50.9192 75.5833 50.4596C75.4545 50.106 75.3884 49.733 75.3879 49.3572C75.3581 48.9681 75.4602 48.5802 75.6781 48.2547C75.7565 48.1438 75.8609 48.0533 75.9824 47.9909C76.1039 47.9285 76.2389 47.8961 76.3758 47.8964C76.553 47.9042 76.7248 47.9594 76.8726 48.0563C76.9289 48.0973 76.9937 48.1255 77.0623 48.139C77.107 48.139 77.1349 48.1059 77.1405 48.0452C77.146 47.9846 77.174 47.935 77.2075 47.9185C77.2794 47.9055 77.3531 47.9055 77.4251 47.9185C77.4708 47.906 77.519 47.906 77.5647 47.9185C77.6041 47.9709 77.6238 48.0352 77.6205 48.1004Z" fill="black"/>
<path d="M78.4968 48.6295H78.3349C78.3038 48.638 78.2711 48.638 78.24 48.6295C78.231 48.5952 78.231 48.5592 78.24 48.5248V48.1886C78.2316 48.1486 78.2316 48.1073 78.24 48.0673C78.2734 48.0415 78.3148 48.0279 78.3572 48.0287C78.5975 47.9725 78.8128 47.841 78.9712 47.6539C79.1635 47.4676 79.2923 47.2268 79.3395 46.9648C79.3452 46.9079 79.3643 46.8532 79.3954 46.805C79.434 46.7822 79.479 46.7725 79.5237 46.7774H79.7972C79.8698 46.7774 79.9089 46.8325 79.9089 46.9373V48.0177H80.1712C80.1919 48.0159 80.2128 48.0187 80.2323 48.0259C80.2518 48.0331 80.2694 48.0445 80.2839 48.0593C80.2983 48.0741 80.3092 48.0919 80.3158 48.1114C80.3224 48.1309 80.3244 48.1516 80.3219 48.172V48.5083C80.3246 48.5285 80.3226 48.549 80.316 48.5683C80.3094 48.5876 80.2984 48.6051 80.2839 48.6196C80.2693 48.634 80.2515 48.6448 80.232 48.6514C80.2124 48.6579 80.1916 48.6598 80.1712 48.6571H79.9033V53.4749C79.8984 53.5466 79.9147 53.6182 79.9504 53.6809C79.9861 53.7435 80.0396 53.7945 80.1042 53.8276C80.1597 53.8533 80.2035 53.8985 80.227 53.9544C80.2549 54.0417 80.2662 54.1332 80.2605 54.2245C80.2605 54.3054 80.2605 54.3495 80.2605 54.3568C80.2277 54.3666 80.1928 54.3666 80.16 54.3568H78.787C78.6776 54.2349 78.5941 54.0926 78.5413 53.9383C78.4886 53.784 78.4678 53.6208 78.48 53.4583L78.4968 48.6295Z" fill="black"/>
<path d="M82.1358 49.2304C82.1878 49.1036 82.2289 48.9727 82.2586 48.839C82.3092 48.5661 82.4176 48.3069 82.5768 48.0783C82.6204 48.0321 82.6731 47.9951 82.7316 47.9695C82.7901 47.944 82.8532 47.9303 82.9172 47.9295C83.001 47.9298 83.0827 47.9553 83.1515 48.0025C83.2203 48.0498 83.2729 48.1166 83.3023 48.1941C83.3935 48.4027 83.4374 48.6284 83.4307 48.8556C83.4307 49.4068 83.2856 49.7155 82.9898 49.7155C82.8447 49.7155 82.7274 49.6218 82.6493 49.4343C82.5712 49.2469 82.5544 49.269 82.5042 49.269C82.454 49.269 82.3088 49.4233 82.3088 49.732V53.4473C82.3054 53.5003 82.3178 53.5532 82.3446 53.5993C82.3714 53.6454 82.4114 53.6826 82.4595 53.7064C82.5077 53.7301 82.5477 53.7674 82.5745 53.8135C82.6013 53.8596 82.6137 53.9124 82.6102 53.9655V54.1749C82.6144 54.2243 82.6048 54.2739 82.5823 54.3182C82.5823 54.3182 82.5265 54.3182 82.454 54.3182H80.8521C80.7405 54.3182 80.6846 54.2631 80.6846 54.1474V53.8883C80.6813 53.8561 80.6861 53.8235 80.6988 53.7937C80.7115 53.7638 80.7316 53.7376 80.7572 53.7174C80.8025 53.6951 80.8403 53.6604 80.8661 53.6173C80.8918 53.5743 80.9044 53.5248 80.9023 53.4749V48.7949C80.9064 48.7511 80.8993 48.707 80.8818 48.6666C80.8642 48.6262 80.8368 48.5907 80.8018 48.5634C80.7502 48.5382 80.706 48.5002 80.6735 48.4532C80.6628 48.3745 80.6628 48.2948 80.6735 48.2161C80.6645 48.1433 80.6801 48.0697 80.7181 48.0067C80.7608 47.9734 80.8147 47.9577 80.8688 47.9626H81.9851C82.0065 47.9605 82.0281 47.9639 82.0476 47.9727C82.0672 47.9814 82.0842 47.995 82.0967 48.0122C82.1116 48.0905 82.1116 48.1709 82.0967 48.2492L82.1358 49.2304Z" fill="black"/>
<path d="M83.7209 48.4531V48.1445C83.7209 48.0452 83.7767 47.9901 83.894 47.9901H85.2447C85.3395 47.9901 85.3898 48.0452 85.3898 48.1445V53.4969C85.3848 53.5446 85.3848 53.5926 85.3898 53.6402C85.4084 53.6683 85.4359 53.6896 85.4679 53.7009C85.5204 53.7269 85.5632 53.7686 85.5902 53.8201C85.6173 53.8716 85.6272 53.9301 85.6186 53.9875C85.6303 54.0901 85.6303 54.1936 85.6186 54.2962C85.6186 54.3293 85.574 54.3458 85.4846 54.3458H83.8102C83.7933 54.3442 83.7774 54.3375 83.7644 54.3266C83.7514 54.3158 83.7421 54.3013 83.7377 54.2852C83.7274 54.2009 83.7274 54.1158 83.7377 54.0316C83.7377 53.8607 83.7712 53.767 83.8437 53.7339C83.8845 53.7239 83.9206 53.7004 83.946 53.6673C83.9714 53.6342 83.9845 53.5935 83.9833 53.552V48.9107C83.9833 48.7343 83.9219 48.624 83.7991 48.5854C83.6763 48.5469 83.7209 48.5248 83.7209 48.4531ZM84.9098 46.6727C85.2279 46.6727 85.3898 46.7884 85.3898 47.0255C85.3854 47.1256 85.3534 47.2226 85.2974 47.3061C85.2413 47.3897 85.1633 47.4565 85.0716 47.4995C84.8503 47.6286 84.5975 47.6953 84.3405 47.6925C83.9888 47.6925 83.8158 47.5602 83.8158 47.3066C83.8193 47.1995 83.8567 47.0961 83.9228 47.0111C83.9889 46.926 84.0803 46.8636 84.1842 46.8325C84.4177 46.7289 84.6705 46.6744 84.9265 46.6727H84.9098Z" fill="black"/>
<path d="M87.5721 51.077V52.9788C87.5602 53.1838 87.6067 53.3881 87.7061 53.5686C87.7376 53.6317 87.786 53.685 87.846 53.7229C87.906 53.7608 87.9753 53.7818 88.0465 53.7836C88.1524 53.7864 88.257 53.7593 88.3479 53.7056C88.4388 53.652 88.5124 53.5738 88.56 53.4804C88.7037 53.2324 88.7752 52.9501 88.7665 52.6645C88.7589 52.5502 88.776 52.4356 88.8168 52.3283C88.8168 52.2897 88.9507 52.2732 89.1237 52.2732C89.2232 52.2638 89.3235 52.2809 89.414 52.3228C89.4655 52.3969 89.4873 52.4872 89.4754 52.5764C89.4819 53.0374 89.3327 53.4874 89.0512 53.8552C88.9241 54.0293 88.7561 54.1704 88.5617 54.2664C88.3673 54.3624 88.1522 54.4105 87.9349 54.4064C87.6577 54.3991 87.387 54.3218 87.1486 54.1819C86.9102 54.042 86.7121 53.8441 86.5731 53.6072C86.1493 52.8786 85.955 52.0419 86.0149 51.2038C85.9632 50.3586 86.1425 49.5152 86.534 48.7618C86.6607 48.5129 86.8542 48.3031 87.0934 48.1554C87.3325 48.0076 87.6082 47.9276 87.8903 47.924C88.1306 47.9252 88.3661 47.9917 88.5708 48.1161C88.7756 48.2405 88.9417 48.4182 89.0512 48.6295C89.377 49.2473 89.5275 49.9407 89.4865 50.636V51.0715L87.5721 51.077ZM88.1302 50.4927V48.9548C88.1302 48.6626 88.0354 48.5193 87.8512 48.5193C87.667 48.5193 87.561 48.6626 87.561 48.9548V50.4927H88.1302Z" fill="black"/>
<path d="M92.1042 48.1004L92.333 49.3902C92.3355 49.4251 92.3355 49.4601 92.333 49.495C92.333 49.5832 92.2549 49.6273 92.1042 49.6273C92.0272 49.6319 91.9502 49.6167 91.8809 49.5832C91.8104 49.522 91.7567 49.4443 91.7247 49.3572C91.6315 49.1817 91.5271 49.0123 91.4121 48.85C91.2726 48.6571 91.1498 48.5579 91.0382 48.5579C91.0156 48.5596 90.9938 48.5664 90.9744 48.5779C90.955 48.5894 90.9386 48.6052 90.9265 48.624C90.8928 48.6685 90.8751 48.7228 90.8763 48.7784C91.0124 49.2552 91.2213 49.7088 91.4958 50.1234C91.7787 50.6066 92.0214 51.1117 92.2214 51.6337C92.3541 52.032 92.4183 52.4493 92.4112 52.8685C92.4347 53.2667 92.3354 53.6626 92.1265 54.004C92.0566 54.1229 91.9577 54.2225 91.8387 54.2937C91.7197 54.365 91.5846 54.4056 91.4456 54.4119C91.2557 54.4017 91.0739 54.3322 90.9265 54.2135C90.8715 54.1627 90.8043 54.1266 90.7312 54.1088C90.6921 54.1088 90.6698 54.1418 90.6586 54.2135C90.658 54.2705 90.6406 54.3261 90.6084 54.3734C90.6084 54.4009 90.5135 54.4119 90.3907 54.4119C90.3233 54.4209 90.2551 54.403 90.201 54.3623C90.1671 54.3155 90.1477 54.26 90.1451 54.2025L89.933 52.9016C89.9305 52.863 89.9305 52.8244 89.933 52.7858C89.933 52.7031 90.0279 52.659 90.2177 52.659C90.2889 52.6521 90.3605 52.6655 90.4242 52.6976C90.4906 52.7675 90.5419 52.85 90.5749 52.9402C90.7926 53.4473 91.0047 53.7009 91.2 53.7009C91.3954 53.7009 91.3898 53.6182 91.3898 53.4473C91.3804 53.2563 91.333 53.069 91.2502 52.8961C91.1554 52.6756 90.9712 52.3118 90.6921 51.7936C90.4484 51.3651 90.2376 50.9192 90.0614 50.4596C89.9344 50.1057 89.8702 49.7327 89.8716 49.3572C89.8431 48.9689 89.943 48.582 90.1563 48.2547C90.2365 48.1444 90.3421 48.0544 90.4643 47.9921C90.5866 47.9298 90.722 47.897 90.8596 47.8964C91.035 47.9043 91.2049 47.9596 91.3507 48.0563C91.4075 48.0964 91.4721 48.1246 91.5405 48.1389C91.5851 48.1389 91.613 48.1059 91.6242 48.0452C91.6354 47.9846 91.6577 47.935 91.6912 47.9185C91.7631 47.9055 91.8369 47.9055 91.9089 47.9185C91.9526 47.9056 91.9991 47.9056 92.0428 47.9185C92.0851 47.9696 92.1069 48.0343 92.1042 48.1004Z" fill="black"/>
</svg>
