<svg width="24" height="24" viewBox="0 0 24 24" fill="none" xmlns="http://www.w3.org/2000/svg">
<path d="M21.543 7.10497C21.558 7.31597 21.558 7.52797 21.558 7.74097C21.558 14.248 16.604 21.751 7.548 21.751V21.748C4.87223 21.7516 2.25194 20.9851 0 19.54C1.28916 19.6953 2.59629 19.595 3.84665 19.2448C5.09702 18.8946 6.26608 18.3013 7.287 17.499C6.25944 17.4795 5.26365 17.1394 4.43888 16.5262C3.61411 15.913 3.0016 15.0574 2.687 14.079C3.42468 14.2212 4.18515 14.1925 4.91 13.995C3.79573 13.7697 2.79367 13.166 2.07373 12.2863C1.3538 11.4065 0.96031 10.3048 0.96 9.16797V9.10597C1.64481 9.4876 2.41138 9.69888 3.195 9.72197C2.15247 9.02584 1.41442 7.95856 1.1311 6.73741C0.847781 5.51626 1.04049 4.23304 1.67 3.14897C2.90661 4.67012 4.44931 5.91419 6.19795 6.8004C7.94659 7.6866 9.86206 8.19513 11.82 8.29297C11.5761 7.2378 11.6865 6.13166 12.1342 5.14551C12.5818 4.15937 13.3418 3.3481 14.2967 2.8371C15.2515 2.32609 16.3481 2.1438 17.4169 2.31838C18.4858 2.49296 19.4674 3.0147 20.21 3.80297C21.3132 3.58543 22.3711 3.18094 23.338 2.60697C22.9705 3.74745 22.2011 4.71552 21.173 5.33097C22.1488 5.21541 23.1017 4.95418 24 4.55597C23.3388 5.54475 22.5068 6.40789 21.543 7.10497Z" fill="black"/>
</svg>
