<svg width="1082" height="1029" viewBox="0 0 1082 1029" fill="none" xmlns="http://www.w3.org/2000/svg">
<path d="M497.335 1007.77C365.434 1007.77 238.935 956.022 145.666 863.905C52.3976 771.788 0 646.85 0 516.576C0 386.302 52.3976 261.364 145.666 169.247C238.935 77.1295 365.434 25.3786 497.335 25.3786L497.75 63.9726C377.075 65.3272 261.808 113.624 176.959 198.384C92.11 283.143 44.5229 397.529 44.5229 516.722C44.5229 635.915 92.11 750.301 176.959 835.061C261.808 919.821 377.075 968.117 497.75 969.472L497.335 1007.77Z" fill="white"/>
<path d="M684.783 406.173H449.733C444.551 406.173 439.582 404.14 435.918 400.521C432.253 396.903 430.195 391.994 430.195 386.876C430.195 381.759 432.253 376.85 435.918 373.231C439.582 369.612 444.551 367.579 449.733 367.579H665.245V162.563C665.245 157.445 667.303 152.537 670.968 148.918C674.632 145.299 679.601 143.266 684.783 143.266C689.965 143.266 694.935 145.299 698.599 148.918C702.263 152.537 704.321 157.445 704.321 162.563V386.876C704.321 391.994 702.263 396.903 698.599 400.521C694.935 404.14 689.965 406.173 684.783 406.173Z" fill="white"/>
<path d="M912.729 472.193H378.034C372.852 472.193 367.883 470.16 364.218 466.541C360.554 462.922 358.496 458.014 358.496 452.896C358.496 447.778 360.554 442.87 364.218 439.251C367.883 435.632 372.852 433.599 378.034 433.599H893.131V361.439C893.131 356.322 895.19 351.413 898.854 347.794C902.518 344.175 907.487 342.142 912.669 342.142C917.851 342.142 922.821 344.175 926.485 347.794C930.149 351.413 932.208 356.322 932.208 361.439V452.896C932.208 458.003 930.157 462.903 926.506 466.52C922.855 470.137 917.9 472.177 912.729 472.193Z" fill="white"/>
<path d="M975.606 643.527H370.16C367.373 643.899 364.538 643.678 361.844 642.879C359.151 642.079 356.662 640.72 354.545 638.892C352.428 637.065 350.73 634.811 349.568 632.282C348.405 629.753 347.803 627.007 347.803 624.23C347.803 621.453 348.405 618.707 349.568 616.178C350.73 613.649 352.428 611.396 354.545 609.568C356.662 607.74 359.151 606.381 361.844 605.582C364.538 604.782 367.373 604.561 370.16 604.933H975.606C978.393 604.561 981.228 604.782 983.921 605.582C986.614 606.381 989.103 607.74 991.22 609.568C993.338 611.396 995.035 613.649 996.198 616.178C997.361 618.707 997.962 621.453 997.962 624.23C997.962 627.007 997.361 629.753 996.198 632.282C995.035 634.811 993.338 637.065 991.22 638.892C989.103 640.72 986.614 642.079 983.921 642.879C981.228 643.678 978.393 643.899 975.606 643.527Z" fill="white"/>
<path d="M716.577 839.304C711.395 839.304 706.426 837.271 702.762 833.652C699.097 830.033 697.039 825.125 697.039 820.007V713.347H450.325C445.143 713.347 440.174 711.314 436.51 707.695C432.845 704.076 430.787 699.168 430.787 694.05C430.787 688.932 432.845 684.024 436.51 680.405C440.174 676.786 445.143 674.753 450.325 674.753H716.755C721.942 674.753 726.918 676.784 730.591 680.402C734.265 684.019 736.336 688.927 736.352 694.05V800.71H796.625C801.806 800.71 806.776 802.743 810.44 806.362C814.104 809.981 816.163 814.889 816.163 820.007C816.163 825.125 814.104 830.033 810.44 833.652C806.776 837.271 801.806 839.304 796.625 839.304H716.577Z" fill="white"/>
<path d="M544.049 986.079C544.049 990.705 542.66 995.227 540.058 999.074C537.456 1002.92 533.757 1005.92 529.429 1007.69C525.102 1009.46 520.34 1009.92 515.746 1009.02C511.152 1008.12 506.932 1005.89 503.62 1002.62C500.308 999.347 498.053 995.179 497.139 990.642C496.225 986.105 496.694 981.402 498.487 977.128C500.279 972.854 503.315 969.201 507.209 966.631C511.104 964.06 515.683 962.689 520.367 962.689C526.648 962.689 532.671 965.153 537.113 969.539C541.554 973.926 544.049 979.875 544.049 986.079Z" fill="white"/>
<path d="M520.13 1029C511.535 1029 503.133 1026.48 495.986 1021.77C488.839 1017.05 483.269 1010.35 479.98 1002.5C476.691 994.661 475.83 986.031 477.507 977.705C479.184 969.379 483.323 961.731 489.401 955.729C495.478 949.726 503.222 945.638 511.652 943.982C520.082 942.326 528.819 943.176 536.76 946.425C544.701 949.673 551.488 955.175 556.263 962.233C561.039 969.291 563.587 977.59 563.587 986.079C563.572 997.457 558.988 1008.37 550.841 1016.41C542.695 1024.46 531.651 1028.98 520.13 1029ZM520.13 981.752C518.968 981.752 517.853 982.207 517.032 983.019C516.21 983.83 515.748 984.931 515.748 986.079C515.748 987.226 516.21 988.327 517.032 989.139C517.853 989.95 518.968 990.406 520.13 990.406C521.292 990.406 522.406 989.95 523.228 989.139C524.049 988.327 524.511 987.226 524.511 986.079C524.511 984.931 524.049 983.83 523.228 983.019C522.406 982.207 521.292 981.752 520.13 981.752Z" fill="white"/>
<path d="M544.049 42.9213C544.049 47.5475 542.66 52.0697 540.058 55.9163C537.456 59.7628 533.757 62.7608 529.429 64.5312C525.102 66.3016 520.34 66.7648 515.746 65.8622C511.152 64.9597 506.932 62.732 503.62 59.4608C500.308 56.1896 498.053 52.0218 497.139 47.4845C496.225 42.9472 496.694 38.2442 498.487 33.9702C500.279 29.6962 503.315 26.0431 507.209 23.4729C511.104 20.9028 515.683 19.531 520.367 19.531C526.648 19.531 532.671 21.9953 537.113 26.3818C541.554 30.7684 544.049 36.7178 544.049 42.9213Z" fill="white"/>
<path d="M520.13 85.8426C511.535 85.8426 503.133 83.3253 495.986 78.6091C488.839 73.8928 483.269 67.1894 479.98 59.3466C476.691 51.5037 475.83 42.8737 477.507 34.5478C479.184 26.2219 483.323 18.574 489.401 12.5714C495.478 6.56871 503.222 2.48087 511.652 0.824743C520.082 -0.831385 528.819 0.0185896 536.76 3.2672C544.701 6.51581 551.488 12.0172 556.263 19.0755C561.039 26.1339 563.587 34.4323 563.587 42.9213C563.587 54.3048 559.009 65.222 550.859 73.2713C542.709 81.3206 531.655 85.8426 520.13 85.8426ZM520.13 38.5941C519.263 38.5941 518.416 38.8479 517.696 39.3234C516.975 39.7989 516.414 40.4747 516.082 41.2654C515.75 42.0561 515.664 42.9261 515.833 43.7655C516.002 44.6049 516.419 45.3759 517.032 45.9811C517.644 46.5863 518.425 46.9984 519.275 47.1654C520.125 47.3323 521.006 47.2467 521.806 46.9192C522.607 46.5916 523.291 46.037 523.773 45.3254C524.254 44.6138 524.511 43.7772 524.511 42.9213C524.511 41.7737 524.049 40.673 523.228 39.8615C522.406 39.05 521.292 38.5941 520.13 38.5941Z" fill="white"/>
<path d="M252.931 626.92C242.64 626.806 232.447 624.947 222.794 621.423C162.048 600.313 102.191 523.067 95.3226 483.83C92.7175 468.801 82.534 464.532 56.1871 457.048C46.9017 454.607 37.7848 451.58 28.8928 447.984C26.5409 446.966 24.4148 445.501 22.6361 443.672C20.8574 441.843 19.4609 439.686 18.5263 437.324C17.5916 434.962 17.1372 432.441 17.1889 429.906C17.2406 427.37 17.7975 424.87 18.8277 422.547C19.8579 420.224 21.3413 418.124 23.1931 416.367C25.045 414.611 27.2291 413.231 29.6206 412.308C32.0122 411.385 34.5644 410.936 37.1316 410.987C39.6988 411.038 42.2306 411.588 44.5825 412.606C51.9015 415.516 59.3956 417.977 67.0219 419.974C92.2439 427.166 126.82 436.99 133.866 477.222C138.307 502.6 188.277 568.503 235.761 585.051C254.648 591.601 264.713 586.981 270.692 582.244C269.686 572.304 250.977 546.691 239.55 531.137C215.038 497.571 193.783 468.567 202.25 443.013C204.318 437.143 207.821 431.868 212.448 427.655C217.075 423.443 222.683 420.422 228.774 418.863C245.868 412.983 264.029 410.751 282.06 412.313C292.303 412.957 295.026 413.132 314.269 383.485C340.556 342.961 389.402 332.143 425.103 324.19C438.069 321.325 457.312 317.056 462.167 312.904C461.634 302.145 450.325 287.76 434.458 277.819C418.591 267.878 393.546 259.75 372.824 268.989C331.379 287.467 295.145 274.135 282.06 252.265C272.942 237.003 273.771 214.139 296.211 197.473C311.545 186.129 321.373 168.235 322.498 160.224C318.896 160.131 315.295 160.485 311.782 161.277C279.107 167.944 245.176 165.121 214.091 153.148C211.72 152.181 209.564 150.761 207.748 148.971C205.932 147.181 204.491 145.055 203.507 142.715C202.523 140.374 202.015 137.865 202.013 135.331C202.01 132.797 202.513 130.287 203.493 127.945C204.473 125.603 205.91 123.474 207.722 121.681C209.535 119.887 211.688 118.464 214.057 117.492C216.427 116.52 218.967 116.018 221.533 116.016C224.098 116.014 226.64 116.511 229.011 117.478C252.91 126.404 278.886 128.432 303.907 123.326C340.26 116.133 353.463 132.214 358.081 142.447C370.752 170.399 343.753 210.221 319.479 228.231C317.722 229.297 316.29 230.813 315.334 232.617C316.844 234.305 318.729 235.626 320.84 236.477C324.274 238.055 337.063 242.324 356.364 233.728C385.968 220.454 423.031 224.781 455.239 245.423C483.362 263.375 500.828 289.631 500.828 313.957C500.828 347.054 464.949 354.89 433.274 362.083C401.598 369.275 364.357 377.403 346.714 404.536C319.656 446.288 306.098 452.779 279.1 451.025C266.032 449.829 252.858 451.466 240.497 455.82L239.195 456.287C240.142 466.579 260.035 493.829 270.929 508.916C298.342 546.34 326.643 584.934 297.691 610.371C285.354 621.162 269.409 627.057 252.931 626.92Z" fill="white"/>
<path d="M217.347 915.206C213.07 915.228 208.907 913.85 205.506 911.288C185.257 896.143 152.22 854.567 173.416 805.564C189.047 769.016 213.144 752.351 232.623 738.901C241.073 733.581 248.863 727.301 255.832 720.189C262.048 713.113 266.962 699.956 271.699 687.209C280.817 662.766 292.184 632.358 322.913 631.247C346.062 630.545 362.226 650.252 380.994 673.233C398.756 695.161 419.005 720.013 446.122 729.72C457.345 733.128 468.966 735.094 480.698 735.568C496.329 736.796 512.551 738.083 525.814 745.801C530.281 748.399 533.52 752.643 534.82 757.6C536.119 762.557 535.371 767.82 532.741 772.233C530.111 776.645 525.814 779.844 520.795 781.127C515.776 782.41 510.447 781.672 505.979 779.074C500.473 775.858 488.809 774.922 477.56 774.045C462.331 773.444 447.254 770.808 432.741 766.209C395.381 752.76 370.515 722.236 350.503 697.676C341.977 687.209 329.07 671.362 323.742 670.017C319.775 670.017 311.9 691.653 308.348 700.834C302.427 716.797 296.507 733.346 285.316 745.743C276.311 755.282 266.15 763.688 255.062 770.771C237.3 782.934 220.781 794.512 209.532 820.768C195.026 854.684 228.833 880.471 229.189 880.764C232.453 883.207 234.857 886.602 236.062 890.468C237.266 894.334 237.21 898.477 235.901 902.31C234.592 906.143 232.096 909.473 228.767 911.829C225.438 914.185 221.443 915.448 217.347 915.44V915.206Z" fill="white"/>
<path d="M405.328 198.233C402.762 198.233 400.222 197.734 397.851 196.764C395.481 195.795 393.327 194.373 391.513 192.581C389.698 190.789 388.259 188.662 387.277 186.321C386.295 183.98 385.79 181.47 385.79 178.936V115.841C385.79 110.723 387.849 105.815 391.513 102.196C395.177 98.5768 400.146 96.5437 405.328 96.5437C410.51 96.5437 415.48 98.5768 419.144 102.196C422.808 105.815 424.866 110.723 424.866 115.841V178.936C424.866 184.054 422.808 188.962 419.144 192.581C415.48 196.2 410.51 198.233 405.328 198.233Z" fill="white"/>
<path d="M460.746 227.12C458.18 227.12 455.639 226.621 453.269 225.651C450.898 224.682 448.744 223.26 446.93 221.468C445.116 219.677 443.676 217.549 442.695 215.208C441.713 212.867 441.207 210.357 441.207 207.823V115.841C441.207 110.723 443.266 105.815 446.93 102.196C450.594 98.5768 455.564 96.5437 460.746 96.5437C465.927 96.5437 470.897 98.5768 474.561 102.196C478.225 105.815 480.284 110.723 480.284 115.841V207.823C480.284 212.941 478.225 217.849 474.561 221.468C470.897 225.087 465.927 227.12 460.746 227.12Z" fill="white"/>
<path d="M518.768 276.649C513.586 276.649 508.616 274.616 504.952 270.997C501.288 267.379 499.23 262.47 499.23 257.352V115.841C499.23 110.723 501.288 105.815 504.952 102.196C508.616 98.5768 513.586 96.5437 518.768 96.5437C523.95 96.5437 528.919 98.5768 532.584 102.196C536.248 105.815 538.306 110.723 538.306 115.841V257.352C538.306 262.47 536.248 267.379 532.584 270.997C528.919 274.616 523.95 276.649 518.768 276.649Z" fill="white"/>
<path d="M483.362 839.246H390.586C385.404 839.246 380.434 837.213 376.77 833.594C373.106 829.975 371.048 825.067 371.048 819.949C371.048 814.831 373.106 809.923 376.77 806.304C380.434 802.685 385.404 800.652 390.586 800.652H483.362C488.544 800.652 493.514 802.685 497.178 806.304C500.842 809.923 502.901 814.831 502.901 819.949C502.901 825.067 500.842 829.975 497.178 833.594C493.514 837.213 488.544 839.246 483.362 839.246Z" fill="white"/>
<path d="M529.958 890.471H452.457C449.891 890.471 447.35 889.972 444.98 889.002C442.609 888.032 440.455 886.611 438.641 884.819C436.827 883.027 435.388 880.9 434.406 878.558C433.424 876.217 432.919 873.708 432.919 871.174C432.919 868.64 433.424 866.13 434.406 863.789C435.388 861.448 436.827 859.321 438.641 857.529C440.455 855.737 442.609 854.315 444.98 853.346C447.35 852.376 449.891 851.877 452.457 851.877H529.958C535.14 851.877 540.109 853.91 543.774 857.529C547.438 861.148 549.496 866.056 549.496 871.174C549.496 876.292 547.438 881.2 543.774 884.819C540.109 888.438 535.14 890.471 529.958 890.471Z" fill="white"/>
<path d="M477.856 941.696H400.355C395.173 941.696 390.203 939.663 386.539 936.044C382.875 932.425 380.817 927.517 380.817 922.399C380.817 917.281 382.875 912.372 386.539 908.754C390.203 905.135 395.173 903.102 400.355 903.102H477.856C483.038 903.102 488.008 905.135 491.672 908.754C495.336 912.372 497.394 917.281 497.394 922.399C497.394 927.517 495.336 932.425 491.672 936.044C488.008 939.663 483.038 941.696 477.856 941.696Z" fill="white"/>
<path d="M685.553 167.416C675.014 167.416 664.712 164.33 655.949 158.547C647.186 152.764 640.356 144.545 636.323 134.928C632.29 125.312 631.235 114.73 633.291 104.521C635.347 94.312 640.422 84.9345 647.874 77.5743C655.326 70.2141 664.821 65.2018 675.157 63.1711C685.494 61.1404 696.208 62.1827 705.945 66.166C715.681 70.1493 724.003 76.8948 729.858 85.5494C735.714 94.2041 738.839 104.379 738.839 114.788C738.839 128.746 733.225 142.132 723.232 152.002C713.239 161.872 699.685 167.416 685.553 167.416ZM685.553 95.6666C681.712 95.6666 677.957 96.7914 674.764 98.899C671.57 101.007 669.081 104.002 667.611 107.507C666.141 111.011 665.757 114.868 666.506 118.589C667.256 122.309 669.105 125.727 671.821 128.409C674.537 131.091 677.997 132.918 681.764 133.658C685.531 134.398 689.436 134.018 692.984 132.567C696.533 131.115 699.566 128.657 701.7 125.503C703.834 122.348 704.973 118.64 704.973 114.847C704.973 109.76 702.927 104.881 699.285 101.284C695.643 97.6873 690.703 95.6666 685.553 95.6666Z" fill="white"/>
<path d="M913.498 361.089C902.959 361.089 892.657 358.002 883.894 352.219C875.131 346.436 868.301 338.217 864.268 328.6C860.235 318.984 859.18 308.402 861.236 298.193C863.292 287.984 868.367 278.607 875.819 271.246C883.272 263.886 892.766 258.874 903.102 256.843C913.439 254.813 924.153 255.855 933.89 259.838C943.627 263.821 951.949 270.567 957.804 279.222C963.659 287.876 966.784 298.051 966.784 308.46C966.784 322.418 961.17 335.804 951.177 345.674C941.184 355.544 927.63 361.089 913.498 361.089ZM913.498 289.397C909.657 289.397 905.903 290.522 902.709 292.63C899.516 294.737 897.026 297.733 895.557 301.237C894.087 304.742 893.702 308.599 894.451 312.319C895.201 316.04 897.05 319.457 899.766 322.14C902.482 324.822 905.942 326.649 909.709 327.389C913.477 328.129 917.381 327.749 920.93 326.297C924.478 324.846 927.511 322.387 929.645 319.233C931.779 316.079 932.918 312.371 932.918 308.577C932.918 303.49 930.872 298.612 927.23 295.015C923.588 291.418 918.649 289.397 913.498 289.397Z" fill="white"/>
<path d="M1028.71 678.554C1018.18 678.554 1007.87 675.468 999.11 669.685C990.347 663.902 983.518 655.682 979.484 646.066C975.451 636.449 974.396 625.868 976.452 615.659C978.508 605.45 983.583 596.072 991.035 588.712C998.488 581.352 1007.98 576.34 1018.32 574.309C1028.66 572.278 1039.37 573.32 1049.11 577.304C1058.84 581.287 1067.16 588.033 1073.02 596.687C1078.87 605.342 1082 615.517 1082 625.926C1082 639.884 1076.39 653.27 1066.39 663.14C1056.4 673.009 1042.85 678.554 1028.71 678.554ZM1028.71 606.804C1024.86 606.781 1021.08 607.89 1017.86 609.99C1014.64 612.089 1012.13 615.086 1010.63 618.599C1009.14 622.112 1008.74 625.984 1009.48 629.724C1010.21 633.463 1012.06 636.902 1014.78 639.605C1017.5 642.307 1020.97 644.151 1024.75 644.903C1028.53 645.655 1032.46 645.28 1036.02 643.828C1039.59 642.375 1042.64 639.91 1044.78 636.743C1046.93 633.577 1048.07 629.853 1048.07 626.043C1048.07 620.961 1046.04 616.085 1042.41 612.48C1038.78 608.876 1033.86 606.835 1028.71 606.804Z" fill="white"/>
<path d="M837.299 869.595C826.76 869.595 816.458 866.508 807.695 860.725C798.932 854.942 792.103 846.723 788.07 837.106C784.037 827.49 782.981 816.908 785.037 806.699C787.093 796.49 792.168 787.113 799.62 779.753C807.073 772.392 816.567 767.38 826.904 765.349C837.24 763.319 847.954 764.361 857.691 768.344C867.428 772.328 875.75 779.073 881.605 787.728C887.46 796.382 890.585 806.558 890.585 816.967C890.585 830.924 884.971 844.311 874.978 854.18C864.985 864.05 851.432 869.595 837.299 869.595ZM837.299 797.845C833.458 797.845 829.704 798.97 826.51 801.077C823.317 803.185 820.828 806.18 819.358 809.685C817.888 813.19 817.503 817.046 818.253 820.767C819.002 824.487 820.852 827.905 823.568 830.587C826.283 833.27 829.744 835.096 833.511 835.837C837.278 836.577 841.182 836.197 844.731 834.745C848.279 833.293 851.312 830.835 853.446 827.681C855.58 824.527 856.719 820.818 856.719 817.025C856.719 811.938 854.673 807.06 851.031 803.463C847.389 799.866 842.45 797.845 837.299 797.845Z" fill="white"/>
<path d="M363.588 531.37V566.456C363.589 567.154 363.805 567.835 364.207 568.409C364.608 568.983 365.177 569.424 365.837 569.672C366.385 569.889 366.856 570.259 367.192 570.737C367.529 571.215 367.717 571.78 367.732 572.362C367.86 573.684 367.86 575.016 367.732 576.338C367.732 576.631 367.199 576.748 366.429 576.748H354.588C354.34 576.771 354.092 576.707 353.887 576.568C353.681 576.43 353.531 576.224 353.463 575.988C353.347 574.723 353.347 573.451 353.463 572.187C353.452 571.779 353.565 571.378 353.787 571.034C354.008 570.69 354.328 570.42 354.707 570.257C356.246 569.555 357.016 568.678 357.016 567.742V509.383C357.058 508.319 356.938 507.255 356.66 506.226C356.372 505.462 355.801 504.835 355.062 504.472C354.442 504.185 353.911 503.741 353.522 503.185C353.227 502.34 353.106 501.445 353.167 500.554C353.167 498.273 353.7 497.104 354.825 497.104H367.258L382.415 535.639V507.22C382.527 506.404 382.328 505.576 381.858 504.895C381.388 504.215 380.68 503.731 379.869 503.536C379.165 503.224 378.569 502.716 378.152 502.074C377.85 501.03 377.73 499.942 377.797 498.858C377.636 498.284 377.636 497.677 377.797 497.104C377.922 496.967 378.08 496.864 378.256 496.803C378.431 496.741 378.62 496.724 378.804 496.753H391.237C391.948 496.753 392.244 497.922 392.244 500.027C392.348 500.784 392.348 501.551 392.244 502.308C392.051 502.708 391.713 503.021 391.296 503.185C390.527 503.438 389.849 503.905 389.342 504.53C389.025 505.059 388.88 505.671 388.928 506.284V576.455H381.29L363.588 531.37Z" fill="white"/>
<path d="M412.255 541.838V562.012C412.129 564.187 412.622 566.354 413.676 568.269C414.016 568.934 414.53 569.496 415.166 569.898C415.801 570.299 416.534 570.524 417.288 570.549C418.421 570.59 419.543 570.309 420.519 569.739C421.495 569.169 422.284 568.334 422.794 567.333C424.293 564.693 425.05 561.705 424.985 558.679C424.865 557.469 425.027 556.249 425.458 555.112C425.814 554.702 426.879 554.527 428.774 554.527C429.829 554.427 430.893 554.609 431.853 555.053C432.399 555.839 432.631 556.798 432.504 557.743C432.547 562.629 430.966 567.395 428.004 571.309C426.652 573.153 424.87 574.647 422.808 575.665C420.747 576.683 418.467 577.195 416.163 577.157C413.222 577.079 410.351 576.259 407.822 574.775C405.293 573.291 403.191 571.192 401.717 568.678C397.225 560.948 395.164 552.073 395.796 543.182C395.247 534.216 397.149 525.269 401.302 517.278C402.636 514.629 404.686 512.396 407.225 510.827C409.764 509.258 412.694 508.415 415.689 508.389C418.231 508.407 420.718 509.114 422.88 510.434C425.042 511.754 426.794 513.636 427.945 515.874C431.442 522.415 433.059 529.776 432.622 537.159V541.779L412.255 541.838ZM418.176 535.639V519.324C418.176 516.225 417.169 514.705 415.156 514.705C413.143 514.705 412.078 516.225 412.078 519.324V535.639H418.176Z" fill="white"/>
<path d="M457.312 527.803L460.153 521.546L460.627 520.669C461.507 519.253 462.109 517.686 462.403 516.05C462.403 515.582 462.048 515.114 461.338 514.705C460.977 514.52 460.702 514.206 460.568 513.828C460.459 512.915 460.459 511.992 460.568 511.079C460.568 510.144 460.568 509.559 460.568 509.383C460.568 509.208 461.16 509.091 461.93 509.091H470.751C471.166 509.091 471.462 509.091 471.521 509.617C471.625 510.374 471.625 511.141 471.521 511.898C471.588 512.735 471.588 513.576 471.521 514.412C471.277 514.754 470.922 515.002 470.515 515.114C469.726 515.614 469.124 516.352 468.798 517.219L460.035 537.043L469.567 568.035C469.875 568.864 470.383 569.607 471.047 570.198C471.353 570.458 471.597 570.782 471.761 571.146C471.925 571.51 472.005 571.905 471.995 572.303V574.876C471.995 575.637 471.995 576.104 471.995 576.28C471.995 576.455 471.343 576.28 470.574 576.28H454.41C453.641 576.28 453.108 576.28 452.871 575.87C452.548 575.176 452.425 574.407 452.516 573.648C452.38 572.796 452.38 571.928 452.516 571.075C452.765 570.53 453.207 570.094 453.759 569.847C454.003 569.762 454.215 569.604 454.363 569.394C454.512 569.184 454.59 568.934 454.588 568.678C454.632 568.27 454.632 567.858 454.588 567.45L451.391 556.983L448.194 563.474C447.259 565.098 446.581 566.852 446.181 568.678C446.181 569.009 446.291 569.332 446.494 569.596C446.697 569.859 446.982 570.051 447.306 570.14C447.631 570.284 447.903 570.525 448.083 570.829C448.263 571.133 448.343 571.485 448.312 571.836V573.707C448.478 574.537 448.478 575.391 448.312 576.221C448.312 576.221 447.779 576.572 447.069 576.572H438.365C437.773 576.572 437.418 576.572 437.3 576.572C437.197 576.11 437.197 575.631 437.3 575.169V572.187C437.344 571.906 437.452 571.639 437.616 571.406C437.781 571.173 437.996 570.98 438.247 570.842C439.23 570.238 440.012 569.364 440.497 568.327L449.023 548.562L439.076 518.096C438.794 517.064 438.194 516.145 437.359 515.465C436.994 515.182 436.675 514.847 436.412 514.471C436.131 513.244 436.031 511.983 436.116 510.728C436.063 510.26 436.167 509.788 436.412 509.383C436.754 509.141 437.178 509.036 437.596 509.091H454.174C454.648 509.03 455.129 509.134 455.535 509.383C455.663 509.902 455.663 510.444 455.535 510.962V512.834C455.563 513.197 455.503 513.562 455.359 513.898C455.214 514.234 454.991 514.53 454.706 514.763C454.371 515.017 454.1 515.345 453.915 515.721C453.73 516.096 453.636 516.509 453.641 516.927C453.615 517.121 453.615 517.318 453.641 517.512L457.312 527.803Z" fill="white"/>
<path d="M478.33 515.874H476.554C476.021 515.874 475.725 515.874 475.606 515.874C475.488 515.874 475.606 515.348 475.606 514.763V511.196C475.481 510.776 475.481 510.33 475.606 509.91C475.935 509.631 476.358 509.484 476.79 509.5C479.339 508.904 481.624 507.509 483.303 505.524C485.344 503.548 486.71 500.993 487.211 498.214C487.271 497.611 487.473 497.03 487.803 496.519C488.212 496.277 488.691 496.175 489.165 496.226H492.362C493.132 496.226 493.546 496.811 493.546 497.922V509.383H496.329C496.549 509.364 496.77 509.394 496.977 509.47C497.184 509.547 497.371 509.668 497.524 509.825C497.677 509.982 497.793 510.171 497.863 510.378C497.933 510.585 497.955 510.804 497.927 511.021V514.588C497.957 514.802 497.935 515.02 497.865 515.225C497.796 515.429 497.679 515.615 497.524 515.768C497.369 515.921 497.181 516.037 496.974 516.106C496.766 516.175 496.545 516.196 496.329 516.167H493.546V567.274C493.494 568.036 493.668 568.795 494.046 569.46C494.425 570.125 494.992 570.666 495.677 571.017C496.266 571.289 496.731 571.769 496.98 572.362C497.276 573.287 497.396 574.259 497.335 575.227C497.335 576.085 497.335 576.553 497.335 576.631C496.988 576.735 496.617 576.735 496.269 576.631H482.001C480.851 575.333 479.976 573.821 479.426 572.184C478.877 570.547 478.666 568.818 478.804 567.099L478.33 515.874Z" fill="white"/>
<path d="M532.504 571.66C531.486 573.402 530.03 574.856 528.278 575.88C526.525 576.905 524.534 577.465 522.498 577.508C516.577 577.508 511.249 573.531 507.341 565.813C503.22 556.944 501.195 547.266 501.42 537.51C500.978 527.07 503.283 516.694 508.111 507.395C512.551 499.735 517.821 495.7 523.86 495.7C526.658 495.652 529.391 496.538 531.616 498.214C532.092 498.595 532.666 498.838 533.274 498.916C533.806 498.916 534.28 498.39 534.635 497.279C534.718 496.84 534.951 496.443 535.297 496.155C535.642 495.867 536.078 495.706 536.53 495.7H538.543C539.49 495.7 540.082 496.636 540.319 497.922L543.22 513.594C543.444 514.673 543.582 515.768 543.635 516.868C543.635 518.038 542.865 518.623 541.266 518.623C540.2 518.738 539.127 518.468 538.247 517.862C537.195 516.214 536.303 514.472 535.583 512.658C534.367 509.673 532.754 506.861 530.787 504.296C530.273 503.615 529.614 503.053 528.857 502.649C528.101 502.245 527.264 502.009 526.406 501.957C522.32 501.957 520.485 505.524 520.485 512.717V565.696C520.485 569.614 521.61 571.543 523.86 571.543C526.11 571.543 527.531 569.614 527.531 565.696V539.908C527.619 539.274 527.522 538.628 527.249 538.047C526.976 537.466 526.539 536.975 525.991 536.633C525.41 536.331 524.935 535.862 524.628 535.288C524.322 534.714 524.198 534.062 524.274 533.417C524.156 532.342 524.319 531.254 524.748 530.259C524.748 529.908 525.636 529.733 526.642 529.733H545.648C545.974 529.686 546.306 529.709 546.623 529.8C546.94 529.891 547.233 530.047 547.483 530.259C547.901 531.029 548.067 531.907 547.957 532.774C548.032 533.7 547.931 534.632 547.661 535.522C547.518 535.797 547.317 536.038 547.072 536.23C546.827 536.421 546.543 536.559 546.24 536.633C545.713 536.865 545.274 537.256 544.987 537.75C544.7 538.244 544.579 538.815 544.641 539.382V572.888C544.728 574.146 544.608 575.41 544.286 576.631C544.286 577.157 543.398 577.391 542.391 577.391C541.726 577.512 541.044 577.512 540.378 577.391C539.728 577.076 539.16 576.615 538.72 576.046C537.067 574.078 534.925 572.567 532.504 571.66Z" fill="white"/>
<path d="M567.85 541.838V562.012C567.724 564.187 568.217 566.355 569.271 568.269C569.605 568.938 570.119 569.504 570.755 569.906C571.392 570.308 572.128 570.53 572.883 570.549C574.006 570.579 575.115 570.292 576.079 569.723C577.044 569.153 577.824 568.324 578.33 567.333C579.854 564.703 580.612 561.708 580.52 558.679C580.439 557.466 580.621 556.25 581.053 555.112C581.053 554.702 582.474 554.527 584.31 554.527C585.365 554.427 586.428 554.609 587.388 555.053C587.934 555.839 588.166 556.798 588.04 557.743C588.109 562.634 586.526 567.407 583.54 571.309C582.191 573.156 580.41 574.653 578.348 575.672C576.285 576.69 574.004 577.2 571.699 577.157C568.749 577.084 565.868 576.266 563.329 574.782C560.79 573.298 558.678 571.196 557.193 568.678C552.729 560.938 550.669 552.071 551.272 543.182C550.724 534.216 552.626 525.269 556.779 517.278C558.123 514.637 560.175 512.412 562.712 510.844C565.25 509.277 568.174 508.428 571.166 508.389C573.716 508.403 576.213 509.108 578.385 510.428C580.557 511.748 582.32 513.632 583.481 515.874C586.937 522.428 588.533 529.783 588.099 537.159V541.779L567.85 541.838ZM573.771 535.639V519.324C573.771 516.225 572.764 514.705 570.751 514.705C568.738 514.705 567.732 516.225 567.732 519.324V535.639H573.771Z" fill="white"/>
<path d="M609.532 515.816C610.807 513.69 612.592 511.907 614.729 510.622C616.866 509.337 619.29 508.591 621.787 508.448C623.176 508.375 624.561 508.641 625.821 509.222C627.081 509.803 628.176 510.682 629.011 511.781C630.744 514.224 631.618 517.162 631.497 520.143V567.391C631.466 567.852 631.552 568.313 631.749 568.732C631.945 569.152 632.246 569.515 632.622 569.789C633.274 570.257 633.629 571.426 633.629 573.356C633.725 574.268 633.604 575.189 633.273 576.046C633.273 576.046 632.622 576.514 631.853 576.514H619.242C618.34 575.678 617.63 574.661 617.16 573.531C616.69 572.401 616.471 571.185 616.518 569.964V523.184C616.518 520.611 615.571 519.383 613.676 519.383C612.873 519.446 612.09 519.67 611.378 520.042C610.665 520.414 610.037 520.926 609.532 521.546V567.567C609.523 568.125 609.667 568.674 609.948 569.158C610.23 569.642 610.638 570.042 611.13 570.315C611.468 570.561 611.733 570.89 611.9 571.271C612.066 571.651 612.128 572.068 612.078 572.479V574.993C612.078 576.104 611.367 576.689 609.887 576.689H593.901C593.131 576.689 592.599 576.689 592.421 576.338C592.114 575.764 591.99 575.112 592.066 574.467V572.654C592.033 572.273 592.091 571.889 592.235 571.534C592.379 571.179 592.605 570.861 592.895 570.608C593.495 570.207 593.983 569.664 594.316 569.029C594.466 567.962 594.466 566.879 594.316 565.813V517.512C594.334 516.99 594.198 516.475 593.924 516.028C593.651 515.582 593.252 515.224 592.776 514.997C592.493 514.847 592.263 514.616 592.115 514.334C591.967 514.052 591.909 513.733 591.947 513.418V510.845C591.947 509.793 592.362 509.266 593.191 509.266H607.874C608.291 509.223 608.711 509.326 609.058 509.559C609.147 509.983 609.147 510.421 609.058 510.845L609.532 515.816Z" fill="white"/>
<path d="M636.648 501.021V498.39C636.648 497.396 637.122 496.87 638.128 496.87H659.68C660.238 496.8 660.803 496.924 661.278 497.22C661.599 497.853 661.723 498.565 661.633 499.267C661.784 500.354 661.784 501.455 661.633 502.542C661.533 502.762 661.377 502.954 661.18 503.097C660.983 503.241 660.751 503.331 660.508 503.36C658.673 503.711 657.726 504.998 657.726 507.22V566.573C657.735 567.201 657.931 567.813 658.289 568.333C658.647 568.852 659.151 569.257 659.739 569.497C660.373 569.758 660.925 570.182 661.337 570.725C661.462 571.342 661.462 571.978 661.337 572.596V574.526C661.337 575.578 661.337 576.163 661.337 576.338C660.869 576.44 660.384 576.44 659.916 576.338H637.951C637.122 576.338 636.707 575.987 636.707 575.227C636.555 573.789 636.555 572.339 636.707 570.9C636.707 570.374 637.359 569.964 638.247 569.672C638.927 569.573 639.547 569.234 639.993 568.718C640.44 568.202 640.682 567.544 640.674 566.865V508.389C640.729 507.34 640.589 506.29 640.26 505.29C639.847 504.468 639.124 503.838 638.247 503.536C637.716 503.322 637.248 502.98 636.885 502.542C636.678 502.063 636.597 501.54 636.648 501.021Z" fill="white"/>
<path d="M681.823 515.816C683.099 513.69 684.884 511.907 687.021 510.622C689.158 509.337 691.581 508.591 694.079 508.448C695.467 508.375 696.853 508.641 698.112 509.222C699.372 509.803 700.468 510.682 701.302 511.781C703.035 514.224 703.909 517.162 703.789 520.143V567.391C703.757 567.852 703.844 568.313 704.04 568.732C704.237 569.152 704.537 569.515 704.913 569.789C705.565 570.257 705.92 571.426 705.92 573.356C706.017 574.268 705.895 575.189 705.565 576.046C705.565 576.046 704.913 576.514 704.144 576.514H691.296C690.394 575.678 689.684 574.661 689.214 573.531C688.745 572.401 688.526 571.185 688.573 569.964V523.184C688.573 520.611 687.625 519.383 685.731 519.383C684.927 519.446 684.145 519.67 683.432 520.042C682.72 520.414 682.091 520.926 681.586 521.546V567.567C681.577 568.125 681.721 568.674 682.003 569.158C682.284 569.642 682.693 570.042 683.185 570.315C683.522 570.561 683.788 570.89 683.954 571.271C684.121 571.651 684.182 572.068 684.132 572.479V574.993C684.132 576.104 683.421 576.689 681.941 576.689H665.956C665.186 576.689 664.653 576.689 664.475 576.338C664.196 575.756 664.093 575.106 664.179 574.467V572.654C664.139 572.278 664.188 571.897 664.321 571.542C664.455 571.187 664.67 570.867 664.949 570.608C665.549 570.207 666.038 569.664 666.37 569.029C666.619 567.975 666.718 566.893 666.666 565.813V517.512C666.684 516.99 666.548 516.475 666.275 516.028C666.001 515.582 665.602 515.224 665.127 514.997C664.849 514.841 664.623 514.609 664.476 514.329C664.329 514.048 664.267 513.732 664.298 513.418V510.845C664.298 509.793 664.712 509.266 665.541 509.266H680.224C680.642 509.212 681.066 509.316 681.408 509.559C681.498 509.983 681.498 510.421 681.408 510.845L681.823 515.816Z" fill="white"/>
<path d="M733.096 513.594V504.998C733.096 503.536 732.563 502.776 731.497 502.659C730.432 502.542 730.55 502.659 730.372 502.191C730.137 501.657 730.036 501.076 730.076 500.495V498.565C730.015 498.078 730.119 497.585 730.372 497.162C730.815 497.019 731.292 497.019 731.734 497.162H746.121C746.397 497.124 746.678 497.145 746.944 497.226C747.21 497.307 747.455 497.445 747.661 497.63C747.97 498.245 748.094 498.935 748.016 499.618V567.859C747.964 568.508 748.143 569.155 748.521 569.688C748.899 570.222 749.453 570.609 750.088 570.783C750.416 570.876 750.701 571.079 750.895 571.356C751.089 571.633 751.181 571.968 751.154 572.303V574.818C751.154 575.929 750.739 576.455 749.851 576.455H734.162C733.629 576.455 733.333 576.455 733.214 576.455C733.095 575.563 733.095 574.658 733.214 573.765C733.214 573.473 733.214 573.064 733.214 572.479C730.953 575.254 727.679 577.039 724.097 577.449C714.545 577.449 709.788 566.807 709.828 545.522C709.828 530.376 711.071 520.435 713.617 515.757C714.404 513.754 715.763 512.02 717.529 510.764C719.294 509.508 721.39 508.785 723.564 508.682C725.403 508.835 727.193 509.348 728.83 510.192C730.466 511.035 731.916 512.191 733.096 513.594ZM733.096 519.441C732.132 518.662 730.96 518.174 729.721 518.038C729.216 518.055 728.725 518.205 728.298 518.473C727.872 518.74 727.525 519.115 727.294 519.558C726.695 520.632 726.389 521.841 726.405 523.067V564C726.384 565.089 726.671 566.162 727.235 567.099C727.465 567.47 727.786 567.777 728.17 567.992C728.553 568.207 728.985 568.322 729.425 568.327C729.889 568.308 730.345 568.194 730.762 567.993C731.18 567.792 731.551 567.507 731.853 567.158C732.2 566.901 732.49 566.577 732.704 566.205C732.918 565.832 733.051 565.42 733.096 564.994V519.441Z" fill="white"/>
<path d="M756.838 516.635L755.95 516.225C755.376 516.03 754.879 515.662 754.529 515.173C754.353 514.462 754.353 513.72 754.529 513.009C754.529 512.424 754.529 511.898 754.529 511.547C754.466 510.865 754.589 510.179 754.884 509.559C755.373 509.188 755.989 509.02 756.601 509.091H770.574C771.284 509.091 771.699 509.091 771.876 509.442C771.975 510.003 771.975 510.577 771.876 511.138V559.731C771.876 564 772.942 566.105 775.073 566.105C775.852 566.122 776.618 565.915 777.28 565.511C777.942 565.106 778.472 564.52 778.803 563.824V518.213C778.816 517.647 778.675 517.087 778.394 516.593C778.112 516.1 777.702 515.69 777.205 515.406C776.984 515.312 776.788 515.167 776.634 514.985C776.48 514.802 776.371 514.586 776.317 514.354C776.201 513.09 776.201 511.817 776.317 510.553C776.317 509.617 776.79 509.091 777.856 509.091H792.539C792.957 509.036 793.381 509.141 793.723 509.383C793.82 509.905 793.82 510.44 793.723 510.962V567.509C793.68 567.967 793.775 568.428 793.996 568.834C794.217 569.24 794.555 569.572 794.967 569.789C795.46 570.111 795.858 570.557 796.118 571.081C796.378 571.605 796.492 572.189 796.447 572.771C796.624 573.875 796.624 575 796.447 576.104C796.447 576.397 795.855 576.514 795.026 576.514H781.349C781.033 576.549 780.712 576.52 780.407 576.43C780.102 576.339 779.818 576.189 779.573 575.988C779.161 575.323 778.994 574.538 779.099 573.765V572.537C779.099 571.193 779.099 570.432 779.099 570.315C776.031 573.988 771.719 576.439 766.962 577.216C765.645 577.25 764.337 576.99 763.138 576.453C761.938 575.916 760.877 575.117 760.035 574.116C757.876 570.609 756.921 566.507 757.311 562.421L756.838 516.635Z" fill="white"/>
<path d="M823.386 510.261L825.872 523.944C825.9 524.314 825.9 524.685 825.872 525.055C825.872 525.991 825.103 526.458 823.445 526.458C822.629 526.499 821.814 526.339 821.077 525.991C820.348 525.325 819.781 524.506 819.419 523.593C818.453 521.719 817.345 519.921 816.103 518.213C814.682 516.167 813.321 515.114 812.196 515.114C811.946 515.123 811.703 515.191 811.487 515.313C811.27 515.436 811.087 515.608 810.952 515.816C810.637 516.305 810.472 516.873 810.479 517.453C811.922 522.511 814.138 527.323 817.051 531.721C820.051 536.847 822.626 542.206 824.748 547.744C826.156 551.968 826.836 556.396 826.761 560.842C827.019 565.075 825.943 569.283 823.682 572.888C822.95 574.144 821.911 575.199 820.659 575.955C819.407 576.711 817.983 577.144 816.518 577.216C814.499 577.128 812.564 576.388 811.012 575.11C810.401 574.577 809.67 574.196 808.88 573.999C808.466 573.999 808.229 574.35 808.17 575.11C808.163 575.715 807.978 576.304 807.637 576.806C807.637 577.098 806.63 577.216 805.269 577.216C804.924 577.264 804.572 577.243 804.236 577.152C803.9 577.062 803.587 576.904 803.315 576.689C802.931 576.201 802.705 575.61 802.664 574.993L800.414 561.193C800.414 560.55 800.414 560.14 800.414 559.965C800.414 559.79 801.42 558.62 803.433 558.62C804.188 558.547 804.948 558.689 805.624 559.029C806.303 559.779 806.826 560.653 807.163 561.602C809.532 566.982 811.722 569.672 813.794 569.672C815.867 569.672 815.867 568.795 815.867 566.982C815.742 564.953 815.22 562.967 814.327 561.135C813.321 558.796 811.367 554.936 808.407 549.439C805.837 544.895 803.621 540.164 801.775 535.288C800.409 531.536 799.708 527.58 799.703 523.593C799.387 519.465 800.47 515.351 802.782 511.898C803.613 510.721 804.721 509.761 806.009 509.099C807.298 508.438 808.73 508.094 810.183 508.097C812.062 508.179 813.884 508.765 815.452 509.793C816.049 510.228 816.737 510.528 817.465 510.67C817.939 510.67 818.235 510.319 818.294 509.676C818.353 509.033 818.649 508.506 819.005 508.331C819.768 508.194 820.55 508.194 821.314 508.331C821.798 508.199 822.309 508.199 822.794 508.331C823.212 508.887 823.421 509.569 823.386 510.261Z" fill="white"/>
<path d="M832.681 515.874H830.964C830.635 515.964 830.287 515.964 829.958 515.874C829.862 515.51 829.862 515.128 829.958 514.763V511.196C829.868 510.772 829.868 510.334 829.958 509.91C830.312 509.636 830.751 509.491 831.201 509.5C833.75 508.904 836.034 507.509 837.714 505.524C839.754 503.548 841.12 500.993 841.621 498.214C841.681 497.611 841.884 497.03 842.213 496.519C842.623 496.277 843.101 496.175 843.575 496.226H846.476C847.246 496.226 847.661 496.811 847.661 497.922V509.383H850.443C850.663 509.364 850.885 509.394 851.092 509.47C851.298 509.547 851.485 509.668 851.639 509.825C851.792 509.982 851.908 510.171 851.977 510.378C852.047 510.585 852.069 510.804 852.042 511.021V514.588C852.071 514.802 852.05 515.02 851.98 515.225C851.91 515.429 851.793 515.615 851.639 515.768C851.484 515.921 851.295 516.037 851.088 516.106C850.881 516.175 850.66 516.196 850.443 516.167H847.601V567.274C847.549 568.036 847.723 568.795 848.102 569.46C848.48 570.125 849.047 570.666 849.733 571.017C850.322 571.289 850.786 571.769 851.035 572.362C851.331 573.287 851.452 574.259 851.391 575.227C851.391 576.085 851.391 576.553 851.391 576.631C851.043 576.735 850.672 576.735 850.325 576.631H835.76C834.6 575.338 833.714 573.828 833.154 572.191C832.595 570.553 832.374 568.822 832.504 567.099L832.681 515.874Z" fill="white"/>
<path d="M871.284 522.248C871.835 520.903 872.271 519.514 872.586 518.096C873.123 515.202 874.273 512.452 875.961 510.027C876.424 509.537 876.983 509.144 877.604 508.873C878.224 508.601 878.894 508.457 879.573 508.448C880.462 508.451 881.328 508.721 882.058 509.223C882.788 509.724 883.346 510.433 883.658 511.255C884.626 513.467 885.091 515.863 885.02 518.272C885.02 524.119 883.48 527.394 880.342 527.394C878.803 527.394 877.56 526.4 876.731 524.412C875.902 522.424 875.724 522.658 875.192 522.658C874.659 522.658 873.119 524.295 873.119 527.569V566.982C873.082 567.545 873.214 568.106 873.499 568.595C873.783 569.083 874.207 569.479 874.718 569.731C875.228 569.983 875.653 570.378 875.937 570.867C876.221 571.355 876.353 571.916 876.316 572.479V574.701C876.361 575.225 876.258 575.751 876.02 576.221C876.02 576.221 875.428 576.221 874.659 576.221H857.666C856.482 576.221 855.89 575.637 855.89 574.409V571.66C855.854 571.319 855.906 570.973 856.04 570.657C856.175 570.34 856.388 570.062 856.66 569.847C857.14 569.611 857.542 569.242 857.815 568.786C858.088 568.329 858.221 567.804 858.199 567.275V517.629C858.242 517.164 858.167 516.696 857.981 516.267C857.795 515.838 857.504 515.462 857.133 515.173C856.585 514.905 856.116 514.502 855.772 514.003C855.659 513.169 855.659 512.323 855.772 511.489C855.676 510.717 855.842 509.935 856.245 509.267C856.698 508.914 857.27 508.747 857.844 508.799H869.685C869.912 508.776 870.141 508.813 870.348 508.906C870.556 508.998 870.736 509.143 870.869 509.325C871.027 510.156 871.027 511.008 870.869 511.839L871.284 522.248Z" fill="white"/>
<path d="M888.098 514.003V510.728C888.098 509.676 888.691 509.091 889.934 509.091H904.262C905.268 509.091 905.801 509.676 905.801 510.728V567.508C905.748 568.014 905.748 568.523 905.801 569.029C905.999 569.327 906.29 569.552 906.63 569.672C907.187 569.948 907.641 570.391 907.928 570.937C908.215 571.483 908.32 572.104 908.229 572.713C908.353 573.801 908.353 574.899 908.229 575.987C908.229 576.338 907.755 576.514 906.808 576.514H889.046C888.867 576.496 888.697 576.425 888.56 576.311C888.422 576.196 888.323 576.042 888.276 575.871C888.168 574.977 888.168 574.074 888.276 573.181C888.276 571.368 888.631 570.374 889.401 570.023C889.834 569.916 890.216 569.667 890.486 569.316C890.755 568.965 890.894 568.533 890.881 568.093V518.857C890.881 516.985 890.23 515.816 888.928 515.406C887.625 514.997 888.098 514.763 888.098 514.003ZM900.71 495.115C904.084 495.115 905.801 496.343 905.801 498.858C905.755 499.92 905.416 500.949 904.821 501.835C904.227 502.721 903.399 503.431 902.427 503.887C900.079 505.256 897.397 505.964 894.67 505.933C890.94 505.933 889.105 504.53 889.105 501.84C889.142 500.704 889.539 499.607 890.24 498.705C890.941 497.803 891.911 497.141 893.013 496.811C895.49 495.712 898.172 495.134 900.887 495.115H900.71Z" fill="white"/>
<path d="M928.951 541.838V562.012C928.825 564.187 929.318 566.355 930.372 568.269C930.707 568.938 931.22 569.504 931.856 569.906C932.493 570.308 933.229 570.53 933.984 570.549C935.107 570.579 936.216 570.292 937.181 569.723C938.145 569.153 938.926 568.324 939.431 567.333C940.955 564.703 941.713 561.708 941.622 558.679C941.54 557.466 941.722 556.25 942.154 555.112C942.154 554.702 943.575 554.527 945.411 554.527C946.466 554.427 947.529 554.609 948.489 555.053C949.036 555.839 949.267 556.798 949.141 557.743C949.21 562.634 947.627 567.407 944.641 571.309C943.293 573.156 941.511 574.653 939.449 575.672C937.386 576.69 935.105 577.2 932.8 577.157C929.859 577.079 926.988 576.259 924.459 574.775C921.93 573.291 919.828 571.192 918.353 568.678C913.859 560.949 911.797 552.073 912.433 543.182C911.884 534.216 913.786 525.269 917.939 517.278C919.283 514.637 921.336 512.412 923.873 510.844C926.41 509.277 929.334 508.428 932.326 508.389C934.876 508.403 937.373 509.108 939.545 510.428C941.717 511.748 943.48 513.632 944.641 515.874C948.097 522.428 949.693 529.783 949.259 537.159V541.779L928.951 541.838ZM934.872 535.639V519.324C934.872 516.225 933.865 514.705 931.911 514.705C929.958 514.705 928.833 516.225 928.833 519.324V535.639H934.872Z" fill="white"/>
<path d="M977.027 510.261L979.454 523.944C979.48 524.314 979.48 524.685 979.454 525.055C979.454 525.991 978.625 526.458 977.027 526.458C976.21 526.507 975.394 526.346 974.659 525.991C973.911 525.342 973.341 524.517 973.001 523.593C972.013 521.732 970.905 519.935 969.685 518.213C968.205 516.167 966.903 515.114 965.719 515.114C965.479 515.132 965.248 515.205 965.042 515.326C964.837 515.448 964.663 515.616 964.534 515.816C964.176 516.287 963.988 516.864 964.002 517.453C965.445 522.511 967.661 527.323 970.573 531.721C973.574 536.847 976.148 542.206 978.27 547.744C979.678 551.968 980.359 556.396 980.283 560.842C980.533 565.067 979.48 569.267 977.264 572.888C976.522 574.149 975.473 575.205 974.211 575.961C972.949 576.717 971.515 577.149 970.041 577.215C968.026 577.107 966.098 576.37 964.534 575.11C963.951 574.571 963.238 574.189 962.462 573.999C962.048 573.999 961.811 574.35 961.692 575.11C961.686 575.715 961.501 576.304 961.16 576.806C961.16 577.098 960.153 577.215 958.851 577.215C958.135 577.31 957.411 577.121 956.838 576.689C956.478 576.192 956.273 575.603 956.245 574.993L953.996 561.193C953.969 560.784 953.969 560.374 953.996 559.965C953.996 559.088 955.002 558.62 957.015 558.62C957.77 558.547 958.53 558.689 959.206 559.029C959.91 559.771 960.454 560.646 960.804 561.602C963.113 566.982 965.363 569.672 967.435 569.672C969.508 569.672 969.448 568.795 969.448 566.982C969.349 564.956 968.846 562.969 967.968 561.135C966.962 558.796 965.008 554.936 962.048 549.439C959.463 544.894 957.227 540.164 955.357 535.288C954.01 531.533 953.329 527.577 953.344 523.593C953.042 519.474 954.101 515.37 956.364 511.898C957.215 510.727 958.335 509.773 959.631 509.112C960.928 508.451 962.365 508.103 963.824 508.097C965.685 508.181 967.487 508.767 969.034 509.793C969.637 510.219 970.322 510.517 971.047 510.67C971.521 510.67 971.817 510.319 971.935 509.676C972.054 509.033 972.29 508.506 972.646 508.331C973.409 508.194 974.191 508.194 974.955 508.331C975.418 508.194 975.912 508.194 976.376 508.331C976.824 508.874 977.056 509.56 977.027 510.261Z" fill="white"/>
</svg>
