<svg width="365" height="419" viewBox="0 0 365 419" fill="none" xmlns="http://www.w3.org/2000/svg">
<g clip-path="url(#clip0_277_225)">
<path d="M349.281 62.2019C336.697 54.7803 319.508 54.2503 304.427 60.8084L304.33 60.8762C305.054 61.0529 305.766 61.2678 306.469 61.5123C320.778 55.7827 336.78 56.4831 348.576 63.4396C366.061 73.7393 372.06 94.8752 374.079 106.552C375.703 115.93 376.163 125.631 376.603 135.011C376.823 139.412 377.007 143.839 377.347 148.316L378.949 150.603C378.507 145.363 378.257 140.094 378.008 134.946C377.566 125.521 377.109 115.781 375.474 106.311C373.395 94.3736 367.25 72.7924 349.281 62.2019Z" fill="black"/>
<path d="M341.329 63.1308C330.71 57.6589 318.288 59.0904 306.416 61.4807C307.206 61.762 307.977 62.0919 308.725 62.4684C319.717 60.3829 331.047 59.4198 340.683 64.3879C348.654 68.4951 355.083 76.6578 359.786 88.656C365.142 102.529 367.3 117.43 366.099 132.252L367.359 134.05C368.881 118.468 366.738 102.745 361.101 88.1377C356.268 75.8129 349.615 67.3964 341.329 63.1308Z" fill="black"/>
<path d="M309.202 69.7422C309.349 67.7646 308.902 65.788 307.919 64.0661C306.935 62.3443 305.459 60.9556 303.68 60.0783C302.455 59.4684 301.078 59.2318 299.719 59.3976C299.043 59.4866 298.397 59.7286 297.829 60.1052C297.261 60.4818 296.787 60.983 296.442 61.5707C295.631 63.08 295.948 64.9535 296.551 66.5513C297.41 68.829 298.794 70.8722 300.59 72.5153C302.156 73.9392 304.365 75.0879 306.337 74.3146C308.106 73.6306 309.021 71.6306 309.202 69.7422Z" fill="black"/>
<path d="M307.295 74.1978C307.04 74.3762 306.765 74.5254 306.476 74.6428C303.897 75.6438 301.345 73.68 300.361 72.7741C298.524 71.0949 297.108 69.0063 296.229 66.6777C295.425 64.5531 295.394 62.7749 296.152 61.4169C296.526 60.7832 297.038 60.2422 297.651 59.8344C298.263 59.4266 298.96 59.1625 299.689 59.0618C301.116 58.884 302.564 59.1331 303.85 59.7777C305.694 60.6854 307.225 62.1244 308.245 63.9095C309.265 65.6946 309.727 67.7441 309.572 69.7942C309.523 70.6469 309.295 71.4798 308.903 72.2385C308.511 72.9972 307.963 73.6648 307.295 74.1978ZM297.882 60.4939C297.413 60.8134 297.028 61.2397 296.756 61.7378C295.955 63.2176 296.381 65.1058 296.881 66.4264C297.724 68.6513 299.078 70.6473 300.832 72.2544C301.521 72.8805 303.948 74.8714 306.212 73.9845C306.451 73.8931 306.678 73.7726 306.887 73.6257C307.47 73.1474 307.946 72.5515 308.284 71.8769C308.621 71.2024 308.813 70.4643 308.846 69.7107C308.99 67.806 308.561 65.9016 307.613 64.243C306.666 62.5844 305.243 61.2475 303.529 60.4044C302.368 59.8174 301.059 59.5896 299.768 59.7502C299.091 59.8496 298.445 60.104 297.882 60.4939Z" fill="black"/>
<path d="M306.162 70.0414C305.884 70.2363 305.565 70.3636 305.23 70.4129C303.807 70.6042 302.711 69.3525 302.186 68.5811C301.402 67.4411 300.825 66.1724 300.48 64.8327C300.208 63.8158 300.282 63.0652 300.702 62.5363C300.802 62.4114 300.919 62.3013 301.05 62.2091C301.638 61.8608 302.335 61.7463 303.004 61.8884C304.266 62.1401 305.401 62.8233 306.215 63.8207C307.028 64.8181 307.469 66.0675 307.462 67.3545C307.458 67.8707 307.34 68.3797 307.115 68.8445C306.89 69.3093 306.564 69.7181 306.162 70.0414ZM301.453 62.7848C301.376 62.8372 301.308 62.9023 301.253 62.9775C300.983 63.3184 300.949 63.8661 301.159 64.6533C301.489 65.913 302.032 67.1068 302.765 68.1831C303.207 68.8148 304.087 69.8541 305.131 69.7078C306.018 69.5874 306.715 68.5 306.755 67.3326C306.751 66.2181 306.364 65.1389 305.66 64.2751C304.956 63.4113 303.976 62.8153 302.885 62.5864C302.4 62.4699 301.888 62.5408 301.453 62.7848Z" fill="white"/>
<path d="M340.795 89.2819C333.316 97.5556 329.308 108.661 335.651 117.719C351.853 142.485 365.765 169.607 381.878 194.906C385.767 193.261 389.737 191.567 393.755 189.847C397.175 185.007 400.632 180.185 404.126 175.38C388.427 149.008 370.919 123.755 351.73 99.8021C348.558 95.8578 345.1 91.7872 340.795 89.2819Z" fill="#FD6824"/>
<path d="M337.229 106.44C337.277 112.039 338.781 117.529 341.594 122.37C344.406 127.211 348.429 131.238 353.269 134.053C356.034 135.617 359.829 136.635 362.138 134.456C363.9 132.797 363.937 130.031 363.587 127.633C362.126 117.556 356.142 108.489 348.364 101.924C346.052 99.9665 342.851 98.1382 340.174 99.5418C337.845 100.77 337.238 103.807 337.229 106.44Z" fill="black"/>
<path d="M359.785 122.149C358.544 117.3 356.096 112.845 352.668 109.198C351.073 107.4 349.115 105.961 346.924 104.975C346.028 104.607 344.97 104.353 344.14 104.881C343.12 105.527 343.048 106.975 343.175 108.176C343.978 115.444 347.627 122.097 353.323 126.681C354.78 127.84 356.766 128.887 358.418 128.026C360.324 127.04 360.294 124.275 359.785 122.149Z" fill="black"/>
<path d="M357.075 121.76L356.861 121.91C355.956 122.385 354.828 122.119 353.616 121.146C352.076 119.916 350.795 118.394 349.846 116.667C348.897 114.94 348.3 113.042 348.088 111.083C347.976 110.023 348.204 109.286 348.775 108.887C349.08 108.712 349.425 108.618 349.776 108.613C350.128 108.609 350.475 108.694 350.784 108.862C352.001 109.399 353.089 110.191 353.974 111.183C355.833 113.165 357.16 115.583 357.835 118.214C358.245 119.81 357.957 121.143 357.075 121.76ZM349.405 109.721C349.165 109.889 349.07 110.328 349.145 110.944C349.341 112.759 349.893 114.517 350.77 116.118C351.647 117.718 352.832 119.13 354.256 120.272C354.761 120.678 355.704 121.255 356.352 120.923L356.454 120.851C357.055 120.43 357.027 119.327 356.801 118.43C356.175 115.965 354.929 113.701 353.182 111.852C352.398 110.961 351.432 110.25 350.348 109.767C350.041 109.633 349.619 109.518 349.38 109.686L349.405 109.721Z" fill="black"/>
<path d="M259.509 135.372C257.754 136.608 255.726 137.402 253.598 137.688C252.254 137.899 250.88 137.815 249.571 137.443C248.261 137.071 247.049 136.42 246.016 135.533L246.956 134.48C247.84 135.232 248.877 135.783 249.996 136.094C251.114 136.404 252.287 136.467 253.432 136.278C255.07 136.061 256.645 135.503 258.054 134.639C259.464 133.775 260.676 132.625 261.613 131.263C264.332 127.188 265.031 121.43 263.699 114.139C262.687 109.182 261.39 104.288 259.813 99.4804C256.754 89.4737 253.568 79.1007 255.921 68.7977L257.3 69.1078C255.029 79.0501 258.015 88.7806 261.156 99.0563C262.748 103.915 264.057 108.862 265.077 113.873C266.495 121.634 265.746 127.58 262.781 132.032C261.908 133.339 260.798 134.472 259.509 135.372Z" fill="black"/>
<path d="M264.85 139.779C260.815 142.604 255.375 144.074 249.857 145.182L249.578 143.798C257.714 142.155 265.651 139.741 268.666 133.257C270.186 130.006 270.305 126.035 269.116 120.748C267.757 114.707 265.285 108.867 262.911 103.211C262.041 101.155 261.183 99.1055 260.35 97.016C257.615 90.1164 254.622 81.0279 255.751 71.9158L257.154 72.0874C256.063 80.8845 259.006 89.7723 261.662 96.4926C262.48 98.5617 263.354 100.623 264.213 102.663C266.623 108.371 269.12 114.268 270.503 120.429C271.772 126.048 271.59 130.298 269.959 133.847C268.819 136.247 267.054 138.295 264.85 139.779Z" fill="black"/>
<path d="M249.762 137.284C246.387 134.415 242.104 131.53 237.856 132.804C234.434 133.826 232.361 137.198 230.606 140.31L192.352 208.165C190.117 212.129 187.803 216.665 189.169 221.023C189.994 223.665 192.051 225.725 194.179 227.484C197.655 230.366 202.187 232.924 206.526 231.617C210.296 230.496 212.62 226.842 214.622 223.466L252.919 159.044C255.117 155.341 257.405 151.225 256.694 146.977C256.009 142.962 252.85 139.905 249.762 137.284Z" fill="#FD6824"/>
<path d="M230.606 140.31L192.352 208.165C190.339 211.731 188.3 215.77 188.889 219.701C198.423 190.323 225.308 166.532 233.863 135.516C232.61 136.994 231.519 138.601 230.606 140.31Z" fill="black" fill-opacity="0.25"/>
<path d="M191.477 209.734C191.281 210.099 191.091 210.467 190.907 210.84C195.286 208.267 201.276 208.233 206.616 210.819C210.279 212.59 213.677 215.48 216.879 219.63L217.268 218.971C214.025 214.871 210.62 211.971 206.925 210.185C201.737 207.667 195.951 207.558 191.477 209.734Z" fill="white"/>
<path d="M220.082 158.969L219.619 159.795C224.583 158.576 229.793 158.813 234.625 160.477C239.458 162.141 243.71 165.161 246.872 169.177L247.254 168.53C244.064 164.56 239.828 161.562 235.023 159.875C230.219 158.187 225.038 157.877 220.066 158.98L220.082 158.969Z" fill="black" fill-opacity="0.25"/>
<path d="M221.796 155.932L221.372 156.692C228.043 155.94 234.777 157.397 240.54 160.84C243.366 162.553 245.892 164.72 248.015 167.253L248.392 166.61C246.249 164.101 243.718 161.951 240.896 160.242C235.151 156.807 228.459 155.297 221.796 155.932Z" fill="black" fill-opacity="0.25"/>
<path d="M249.762 137.284C246.387 134.416 242.104 131.53 237.856 132.804C237.121 133.03 236.426 133.368 235.795 133.807C233.91 141.96 238.093 152.531 236.479 156.667C230.913 183.199 209.932 204.678 196.561 229.249C199.599 231.267 203.112 232.619 206.512 231.597C210.282 230.476 212.606 226.821 214.608 223.446L252.904 159.023C255.103 155.32 257.391 151.204 256.68 146.957C256.009 142.963 252.85 139.905 249.762 137.284Z" fill="#FD6824"/>
<path d="M210.937 224.763C211.472 221.906 209.845 219.051 207.781 217.003C205.597 214.839 202.906 213.254 199.953 212.394C197.599 211.711 194.864 211.569 192.878 213.005C190.893 214.441 190.153 217.191 190.619 219.591C191.084 221.991 192.575 224.098 194.309 225.837C196.721 228.263 199.858 230.205 203.281 230.291C206.705 230.376 210.311 228.132 210.937 224.763Z" fill="black"/>
<path d="M181.495 229.821C179.16 234.857 176.878 239.91 174.647 244.98C175.273 245.354 175.916 245.708 176.529 246.084C178.287 242.033 180.386 238.138 182.802 234.441C183.775 232.782 185.055 231.324 186.574 230.144C188.148 229.042 190.248 228.528 192.027 229.257L194.525 222.762C191.019 224.587 186.237 223.775 183.466 226.596C182.629 227.55 181.963 228.641 181.495 229.821Z" fill="black"/>
<path d="M191.927 221.666L179.669 247.196C180.402 247.723 181.156 248.235 181.874 248.773L198.435 224.269C197.491 223.29 196.552 222.307 195.614 221.324C194.386 221.447 193.157 221.556 191.927 221.666Z" fill="black"/>
<path d="M191.927 221.666L179.669 247.196C179.788 247.28 179.902 247.367 180.025 247.456L195.888 221.565L195.639 221.306C194.386 221.447 193.157 221.556 191.927 221.666Z" fill="black"/>
<path d="M201.48 226.07C197.832 231.226 193.943 236.202 189.814 240.996C189.355 241.45 189.014 242.009 188.821 242.625C188.736 242.935 188.765 243.265 188.905 243.554C189.045 243.843 189.284 244.071 189.58 244.197L204.438 230.62C203.377 229.137 202.426 227.594 201.48 226.07Z" fill="black"/>
<path d="M207.435 219.622L233.204 181.602C234.537 179.636 236.434 177.412 238.775 177.838C240.626 178.182 241.768 180.116 242.098 181.965C242.91 186.476 240.436 190.858 238.058 194.77L219.894 224.641C218.112 227.582 216.114 230.704 212.92 231.977C211 232.664 208.894 232.618 207.006 231.848C205.118 231.078 203.58 229.639 202.688 227.806L207.435 219.622Z" fill="black"/>
<path d="M238.815 183.284C238.844 182.034 238.407 180.533 237.187 180.21C236.759 180.121 236.313 180.161 235.908 180.327C235.503 180.493 235.157 180.776 234.915 181.141C234.444 181.884 234.218 182.756 234.27 183.635C234.288 184.75 234.54 185.849 235.01 186.86C235.329 187.532 235.908 188.251 236.668 188.144C236.946 188.063 237.202 187.919 237.415 187.722C237.628 187.526 237.792 187.282 237.895 187.011C238.478 185.854 238.793 184.58 238.815 183.284Z" fill="black"/>
<path d="M205.343 228.756C206.355 229.62 207.561 230.227 208.858 230.524C209.51 230.663 210.185 230.653 210.833 230.494C211.48 230.335 212.083 230.032 212.597 229.607C214.027 228.309 214.145 226.017 213.396 224.241C212.646 222.465 211.191 221.093 209.816 219.747C208.632 223.727 207.078 224.967 205.343 228.756Z" fill="black"/>
<path d="M324.679 70.1949C321.219 65.7844 315.915 63.2191 310.822 60.8251C286.557 49.4341 262.297 38.0424 238.041 26.65C236.33 25.8523 234.4 25.6528 232.562 26.0835C230.724 26.5141 229.083 27.55 227.905 29.0248C226.322 30.9315 224.958 33.0098 223.838 35.2207C221.752 39.4526 220.942 44.5526 222.77 48.8762C224.685 53.4117 228.979 56.2899 233.012 58.9705L306.43 107.262C314.344 105.228 321.773 100.429 325.76 93.2946C329.746 86.1602 329.722 76.626 324.679 70.1949Z" fill="#FD6824"/>
<path d="M269.101 57.9969C259.617 54.297 256.604 42.6104 249.779 35.3246C244.443 29.6232 237.264 27.3303 229.907 27.2656C229.154 27.7492 228.483 28.3499 227.919 29.0452C226.336 30.9519 224.972 33.0302 223.852 35.2411C221.766 39.473 220.956 44.573 222.784 48.8966C224.685 53.4117 228.979 56.2899 233.012 58.9705L306.43 107.262C314.344 105.228 321.773 100.429 325.76 93.2946C327.15 90.7695 328.048 88.0026 328.403 85.1418C308.694 76.3464 288.927 67.2981 269.101 57.9969Z" fill="#FD6824"/>
<path d="M310.671 104.915C306.78 105.02 303.202 102.924 299.901 100.877L289.574 94.5327C287.318 93.1435 284.75 90.8954 285.56 88.3991C286.371 85.9028 289.663 85.6481 292.249 85.3405C296.587 84.8077 300.655 82.9485 303.897 80.0168C306.212 77.902 308.067 75.2593 310.341 73.0522C312.614 70.8451 315.535 69.0201 318.697 69.1221C323.359 69.2743 326.981 73.7311 327.675 78.3326C328.368 82.934 326.802 87.5613 324.899 91.8166C323.52 94.9315 321.93 98.0185 319.59 100.5C317.25 102.981 314.076 104.824 310.671 104.915Z" fill="black"/>
<path d="M226.63 33.4176C228.875 30.7677 232.477 29.0272 235.852 29.8455C240.188 30.9093 242.504 35.453 244.834 39.2578C247.965 44.3738 252.014 48.8669 256.779 52.5105C259.747 54.7754 262.992 56.7096 265.721 59.263C268.45 61.8164 270.692 65.1591 270.934 68.8771C271.176 72.5951 268.818 76.6227 265.168 77.3946C262.223 78.0141 259.287 76.5318 256.641 75.0963C253.183 73.2153 249.723 71.3354 246.261 69.4568C241.64 66.945 236.979 64.4082 232.942 61.0392C228.905 57.6703 225.466 53.3663 224.023 48.3023C222.581 43.2383 223.229 37.4311 226.63 33.4176Z" fill="black"/>
<path d="M260.793 46.716C260.539 46.8961 260.249 47.0187 259.943 47.0754C259.394 47.1359 258.838 47.0451 258.337 46.8126C257.836 46.5802 257.408 46.215 257.099 45.7566C256.717 45.2265 256.391 44.6587 256.125 44.062C255.982 43.7599 255.833 43.4614 255.671 43.1648C255.561 43.0069 255.45 42.8489 255.372 42.6609C255.062 42.1919 254.811 41.6873 254.623 41.158C254.472 40.7481 254.44 40.304 254.53 39.8768C254.621 39.4495 254.83 39.0564 255.134 38.7427C255.413 38.5251 255.736 38.3708 256.081 38.2905C256.426 38.2102 256.785 38.2059 257.131 38.2778C258.47 38.4688 259.699 39.1223 260.607 40.1248C261.514 41.1274 262.042 42.4158 262.099 43.7667C262.13 44.3266 262.027 44.8858 261.8 45.3985C261.573 45.9112 261.228 46.3627 260.793 46.716ZM255.691 39.2027L255.594 39.2705C255.397 39.4943 255.264 39.7682 255.212 40.0621C255.159 40.356 255.188 40.6587 255.296 40.9372C255.464 41.4157 255.691 41.8713 255.972 42.2935C256.086 42.4565 256.204 42.6247 256.293 42.8279C256.459 43.1296 256.609 43.4419 256.768 43.7557C257.011 44.3104 257.312 44.8379 257.665 45.3295C257.899 45.6803 258.221 45.963 258.599 46.1489C258.978 46.3348 259.398 46.4173 259.819 46.388C260.028 46.3441 260.226 46.2573 260.4 46.1332C260.738 45.8456 261.006 45.4833 261.181 45.0748C261.356 44.6663 261.434 44.2227 261.409 43.779C261.345 42.6011 260.878 41.4809 260.087 40.6058C259.296 39.7306 258.228 39.1536 257.063 38.9712C256.593 38.8869 256.108 38.9688 255.691 39.2027Z" fill="white"/>
<path d="M259.13 40.9254C260.05 42.2399 260.178 43.745 259.413 44.2801C258.649 44.8152 257.273 44.1841 256.353 42.8697C255.433 41.5552 255.302 40.045 256.071 39.5063C256.84 38.9677 258.206 39.6059 259.13 40.9254Z" fill="black"/>
<path d="M243.147 49.3074C243.011 49.4036 242.866 49.4872 242.714 49.5571C240.402 50.6901 237.939 48.6569 237.24 48.0069C234.854 45.7873 233.26 42.8477 232.701 39.637C232.428 38.3749 232.482 37.064 232.859 35.8288C233.062 35.186 233.421 34.6035 233.903 34.1331C234.386 33.6626 234.977 33.3189 235.625 33.1325C237.352 32.7358 239.008 33.8005 240.081 34.7577C242.83 37.2248 244.535 40.6478 244.847 44.3285C245.04 46.5776 244.4 48.4298 243.147 49.3074ZM234.876 34.2418C234.257 34.6947 233.794 35.327 233.547 36.0528C233.208 37.1745 233.163 38.3643 233.416 39.5085C233.949 42.5647 235.468 45.3623 237.741 47.4743C239.01 48.6583 240.912 49.6501 242.427 48.908C244.284 48.0028 244.241 45.1775 244.175 44.3888C243.882 40.8847 242.26 37.6254 239.641 35.2785C238.688 34.4273 237.246 33.4853 235.808 33.8167C235.465 33.8991 235.141 34.0484 234.855 34.2561L234.876 34.2418Z" fill="white"/>
<path d="M241.557 44.9768C241.266 45.1576 240.93 45.2518 240.587 45.2484C240.244 45.2449 239.91 45.1439 239.623 44.9572C239.087 44.5913 238.658 44.0904 238.378 43.5052C237.756 42.3612 237.327 41.1222 237.109 39.8383C236.978 39.0338 237.072 38.0188 237.74 37.5515C237.873 37.4585 238.022 37.3923 238.181 37.3568C238.608 37.2625 239.271 37.3526 240.027 38.2808C241.045 39.5399 241.761 41.0149 242.12 42.5932C242.362 43.654 242.212 44.427 241.683 44.8963L241.557 44.9768ZM238.136 38.117C237.764 38.3774 237.703 39.126 237.801 39.7104C238 40.9232 238.405 42.0929 239 43.1684C239.222 43.6436 239.564 44.0531 239.992 44.3569C240.163 44.4692 240.361 44.5323 240.566 44.5392C240.77 44.5461 240.972 44.4965 241.151 44.396L241.212 44.3532C241.609 43.999 241.548 43.2826 241.425 42.7385C241.088 41.2664 240.42 39.8903 239.473 38.7145C239.175 38.3538 238.743 37.9427 238.329 38.0349C238.265 38.0467 238.205 38.0709 238.151 38.1063L238.136 38.117Z" fill="white"/>
<path d="M254.709 125.361C255.665 122.574 255.143 119.226 254.689 116.029C252.194 98.825 252.273 81.3455 254.925 64.1651C249.81 59.7665 244.426 55.2223 238.394 53.5692C232.362 51.9161 225.582 54.3022 224.538 60.3479C227.193 81.0944 228.458 101.995 228.324 122.911C232.849 126.12 237.549 129.405 242.586 130.548C247.622 131.69 253.103 130.062 254.709 125.361Z" fill="black"/>
<path d="M238.719 50.1075C231.842 48.234 224.106 50.9248 222.923 57.8347C225.946 81.4854 227.387 105.312 227.237 129.154C232.393 132.81 237.742 136.566 243.493 137.862C249.244 139.157 255.483 137.31 257.331 131.969C258.334 129.064 257.913 125.632 257.444 122.285C245.962 102.535 247.077 84.8378 249.208 61.5852C252.031 62.9801 254.629 64.79 256.916 66.9546C257.128 65.3709 257.325 63.7756 257.575 62.2031C251.732 57.1759 245.591 51.9847 238.719 50.1075Z" fill="#FD6824"/>
<path d="M222.923 57.8346C225.946 81.4852 227.387 105.311 227.237 129.154C228.436 130 229.64 130.85 230.861 131.673L226.835 51.7319C225.801 52.429 224.921 53.3299 224.249 54.3793C223.576 55.4287 223.125 56.6045 222.923 57.8346Z" fill="black" fill-opacity="0.25"/>
<path d="M238.719 50.1076C240.715 79.0805 240.178 108.089 240.436 136.912C241.439 137.296 242.466 137.614 243.51 137.865C249.248 139.162 255.5 137.313 257.348 131.972C258.352 129.067 257.93 125.635 257.462 122.288C245.979 102.538 247.095 84.8409 249.225 61.5883C252.048 62.9832 254.646 64.7931 256.933 66.9577C257.145 65.374 257.342 63.7787 257.592 62.2062C251.732 57.176 245.591 51.9847 238.719 50.1076Z" fill="#FD6824"/>
<path d="M239.687 117.126C236.146 117.328 233.547 120.393 231.389 123.21C230.146 124.84 228.826 126.804 229.407 128.773C229.81 130.162 231.045 131.112 232.245 131.926C234.886 133.767 237.579 135.524 240.324 137.196C241.808 138.101 243.381 139.003 245.121 139.091C248.025 139.237 250.486 137.103 252.603 135.105C254.437 133.388 256.364 131.325 256.117 128.848C255.955 127.238 254.863 125.884 253.727 124.728C251.071 122.03 247.939 119.847 244.488 118.29C243.004 117.523 241.357 117.124 239.687 117.126Z" fill="black"/>
<path d="M245.495 57.8225C246.697 59.5394 246.861 61.4975 245.863 62.1967C244.864 62.8959 243.08 62.0723 241.878 60.3553C240.676 58.6384 240.508 56.6752 241.507 55.976C242.505 55.2768 244.282 56.0902 245.495 57.8225Z" fill="black"/>
<path d="M235.958 134.983C235.333 139.795 234.759 144.874 236.66 149.335C238.562 153.797 243.881 157.187 248.32 155.241C252.331 153.487 253.726 148.562 254.315 144.209C254.961 139.575 255.253 134.898 255.188 130.22C255.114 124.866 254.397 119.104 250.773 115.164C248.266 112.44 243.751 111.023 240.865 113.332C238.801 114.983 238.287 117.848 237.92 120.459C237.244 125.305 236.59 130.147 235.958 134.983Z" fill="black"/>
<path d="M238.169 133.989C237.604 138.31 237.089 142.877 238.803 146.886C240.516 150.895 245.269 153.952 249.28 152.199C252.89 150.621 254.14 146.192 254.684 142.296C255.265 138.13 255.527 133.926 255.468 129.72C255.401 124.907 254.753 119.72 251.497 116.176C249.244 113.729 245.186 112.455 242.587 114.534C240.737 116.012 240.273 118.591 239.943 120.94C239.328 125.289 238.737 129.638 238.169 133.989Z" fill="black"/>
<path d="M248.792 117.865C248.209 117.328 247.487 116.965 246.708 116.819C246.318 116.752 245.916 116.804 245.556 116.968C245.195 117.132 244.893 117.401 244.688 117.74C244.263 118.576 244.685 119.579 245.12 120.406C245.521 121.297 246.105 122.093 246.833 122.745C247.202 123.065 247.654 123.275 248.138 123.349C248.621 123.423 249.115 123.359 249.564 123.164C250.008 122.874 250.348 122.45 250.535 121.953C250.721 121.457 250.744 120.914 250.6 120.403C250.284 119.386 249.651 118.496 248.792 117.865Z" fill="black"/>
<path d="M248.763 118.941C248.478 118.679 248.125 118.503 247.745 118.431C247.555 118.397 247.359 118.422 247.184 118.502C247.008 118.582 246.86 118.713 246.76 118.878C246.692 119.096 246.675 119.328 246.712 119.554C246.749 119.78 246.838 119.994 246.973 120.179C247.168 120.613 247.452 121.002 247.808 121.318C247.987 121.475 248.206 121.577 248.441 121.613C248.677 121.649 248.917 121.617 249.134 121.52C249.353 121.381 249.52 121.175 249.612 120.933C249.704 120.691 249.715 120.426 249.644 120.177C249.489 119.682 249.181 119.249 248.763 118.941Z" fill="black"/>
<path d="M245.321 135.777C244.471 135.67 243.608 135.82 242.845 136.208C242.081 136.597 241.452 137.206 241.038 137.956C240.304 139.487 240.754 141.313 241.343 142.913C241.932 144.513 242.753 146.238 244.138 147.349C245.523 148.459 247.607 148.845 249.043 147.848C250.321 146.952 250.785 145.261 250.841 143.703C250.943 141.921 250.511 140.148 249.599 138.612C249.141 137.852 248.519 137.204 247.779 136.714C247.039 136.223 246.199 135.903 245.321 135.777Z" fill="black"/>
<path d="M248.127 145.444C248.035 145.52 247.938 145.588 247.836 145.648C246.589 146.241 245.157 145.519 244.446 144.536C243.818 143.526 243.448 142.377 243.371 141.19C243.221 140.087 243.176 138.949 243.886 138.141C244.734 137.183 246.432 137.201 247.509 138.11C248.394 138.984 248.968 140.123 249.143 141.354C249.334 142.112 249.369 142.901 249.247 143.673C249.112 144.384 248.711 145.017 248.127 145.444ZM244.635 138.376C244.549 138.436 244.471 138.506 244.402 138.585C243.882 139.176 243.953 140.113 244.071 141.094C244.134 142.166 244.459 143.205 245.015 144.123C245.557 144.898 246.677 145.412 247.534 145.009C247.806 144.858 248.039 144.646 248.217 144.39C248.394 144.134 248.511 143.841 248.558 143.533C248.64 142.854 248.589 142.165 248.406 141.506C248.259 140.44 247.775 139.448 247.025 138.677C246.704 138.386 246.301 138.201 245.871 138.149C245.442 138.096 245.006 138.178 244.625 138.383L244.635 138.376Z" fill="black"/>
<path d="M394.752 189.679C398.172 184.84 401.629 180.018 405.123 175.212C389.42 148.838 371.909 123.583 352.715 99.6284C348.516 94.391 343.803 88.929 337.313 87.2398C329.033 85.0877 320.651 89.6741 313.329 94.0948C308.352 97.0935 303.098 100.401 300.668 105.67C298.239 110.94 299.171 117.25 300.184 123.055C305.612 154.12 311.044 185.188 316.479 216.257C316.222 222.504 352.767 207.651 394.752 189.679Z" fill="#FD6824"/>
<path d="M300.658 105.677C298.196 111.031 299.161 117.257 300.174 123.062C305.602 154.127 311.033 185.195 316.469 216.264C316.387 218.402 320.622 218.064 327.913 215.973C314.49 179.671 303.895 142.635 301.624 103.923C301.266 104.487 300.943 105.073 300.658 105.677Z" fill="black" fill-opacity="0.25"/>
<path d="M330.533 193.138C339.555 191.048 348.443 188.412 357.147 185.246C362.622 183.219 369.344 180.425 375.392 176.191C376.782 175.221 378.119 174.178 379.399 173.066C385.08 168.101 389.302 161.857 392.762 155.282C392.608 155.063 392.451 154.838 392.323 154.601C388.862 161.239 384.652 167.566 378.94 172.53C372.097 178.513 363.568 182.109 356.902 184.582C348.229 187.734 339.374 190.357 330.384 192.437C326.202 193.437 322.123 194.258 318.232 193.353C315.574 192.73 313.246 191.134 311.706 188.88C311.8 189.406 311.89 189.935 311.981 190.456C313.601 192.24 315.724 193.491 318.07 194.044C322.091 194.994 326.254 194.129 330.533 193.138Z" fill="white"/>
<path d="M318.315 170.115C331.476 166.54 345.024 162.392 355.942 154.747C358.702 152.826 361.279 150.654 363.638 148.257C368.381 143.418 372.367 137.399 375.672 130.051C375.519 129.832 375.362 129.608 375.205 129.384C371.92 136.816 367.899 142.904 363.157 147.788C351.496 159.674 335.208 164.823 318.134 169.444C315.507 170.16 312.238 171.044 309.242 170.355C308.958 170.287 308.678 170.201 308.403 170.1C308.451 170.363 308.502 170.631 308.544 170.897L309.08 171.045C312.241 171.763 315.609 170.848 318.315 170.115Z" fill="white"/>
<path d="M318.976 79.3666L298.597 93.6362C298.541 93.8273 298.478 94.0081 298.427 94.1957C301.283 111.22 307.873 127.401 317.724 141.577C324.461 140.058 330.865 137.324 336.621 133.508C333.207 126.788 329.97 119.791 329.112 112.298C328.254 104.805 330.119 96.6355 335.633 91.4987C332.907 84.7972 326.146 80.0101 318.976 79.3666Z" fill="black"/>
<path d="M298.592 93.6398C298.536 93.8309 298.473 94.0118 298.422 94.1993C301.278 111.224 307.868 127.405 317.719 141.581C321.948 140.63 326.054 139.194 329.955 137.303C320.02 118.778 312.901 99.1326 318.869 79.4416L298.592 93.6398Z" fill="#005361"/>
<path d="M329.652 93.2877C329.977 92.4676 330.132 91.5898 330.107 90.7079C330.083 89.8259 329.878 88.9583 329.507 88.1578C329.128 87.361 328.575 86.6587 327.89 86.1022C327.205 85.5457 326.404 85.1489 325.546 84.9407C324.108 84.6113 322.38 84.9941 321.641 86.2706C321.222 87.1535 321.118 88.1534 321.347 89.1036C321.618 90.7376 322.2 92.3046 323.06 93.7197C323.708 94.785 324.618 95.8254 325.848 96.0198C327.528 96.2937 329.039 94.8633 329.652 93.2877Z" fill="black"/>
<path d="M327.446 94.0734C327.3 94.1748 327.139 94.2519 326.968 94.3017C325.821 94.604 324.904 93.5224 324.462 92.3816C323.963 91.3836 323.815 90.247 324.04 89.1543C324.205 88.6187 324.545 88.1537 325.005 87.833C325.268 87.6282 325.581 87.4975 325.911 87.4544C326.241 87.4114 326.577 87.4576 326.884 87.5882L326.983 87.6549C327.64 88.3046 328.111 89.1189 328.345 90.0127C328.58 90.9064 328.57 91.8467 328.316 92.7352C328.181 93.2647 327.875 93.735 327.446 94.0734ZM325.412 88.4138C325.081 88.6385 324.836 88.9681 324.715 89.3494C324.542 90.2864 324.685 91.2545 325.123 92.1008C325.454 92.9094 326.089 93.7938 326.797 93.6016C327.016 93.5057 327.208 93.3569 327.356 93.1687C327.504 92.9805 327.602 92.7586 327.643 92.5228C327.858 91.7691 327.869 90.9719 327.676 90.2123C327.483 89.4527 327.092 88.7578 326.544 88.1981C326.352 88.142 326.15 88.1343 325.955 88.1754C325.76 88.2166 325.578 88.3055 325.426 88.4342L325.412 88.4138Z" fill="white"/>
</g>
<path d="M308.752 352.67H57.9233V384.071H308.752V352.67Z" fill="black"/>
<path d="M253.54 297.764H113.374L57.1373 331.275C55.2593 332.394 53.7103 333.951 52.6365 335.8C51.5627 337.649 50.9995 339.729 51 341.843V348.709C50.999 349.34 51.1282 349.965 51.3804 350.548C51.6326 351.131 52.0028 351.661 52.4697 352.107C52.9366 352.554 53.491 352.907 54.1013 353.148C54.7115 353.389 55.3655 353.513 56.0258 353.512H310.848C311.508 353.513 312.162 353.389 312.773 353.148C313.383 352.907 313.937 352.554 314.404 352.107C314.871 351.661 315.241 351.131 315.493 350.548C315.746 349.965 315.875 349.34 315.874 348.709V341.843C315.874 339.729 315.311 337.649 314.237 335.8C313.164 333.951 311.615 332.394 309.736 331.275L253.54 297.764Z" fill="#005361"/>
<path d="M261.067 302.248L253.54 297.764H113.374L105.847 302.248H261.067Z" fill="#007888"/>
<path d="M84.3385 315.062L81.1071 316.989H285.799L282.575 315.062H84.3385Z" fill="#007888"/>
<path d="M67.6653 325.001L66.0535 325.957H300.852L299.24 325.001H67.6653Z" fill="#007888"/>
<path d="M60.6784 329.166L58.5267 330.448H308.387L306.235 329.166H60.6784Z" fill="#007888"/>
<path d="M52.8103 335.569C52.4345 336.185 52.1132 336.829 51.8496 337.496H315.072C314.808 336.829 314.487 336.185 314.111 335.569H52.8103Z" fill="#007888"/>
<path d="M315.914 345.181H51V347.746H315.914V345.181Z" fill="#007888"/>
<path d="M185.847 334.621C247.578 334.621 297.621 331.149 297.621 326.867C297.621 322.585 247.578 319.114 185.847 319.114C124.116 319.114 74.0726 322.585 74.0726 326.867C74.0726 331.149 124.116 334.621 185.847 334.621Z" fill="black"/>
<path d="M219.058 267H149.031V327.884H219.058V267Z" fill="#FD6824"/>
<path d="M211.881 320.183H194.096V322.717H211.881V320.183Z" fill="white"/>
<path d="M211.881 304.039H194.096V317.657H211.881V304.039Z" fill="white"/>
<path d="M190.658 267H177.423V282.227H190.658V267Z" fill="black" fill-opacity="0.25"/>
<path d="M134.104 279.974H79.0031V327.876H134.104V279.974Z" fill="#FD6824"/>
<path d="M126.855 322.057H114.176V323.863H126.855V322.057Z" fill="white"/>
<path d="M126.855 310.548H114.176V320.259H126.855V310.548Z" fill="white"/>
<path d="M134.104 327.884H142.29V285.239L134.104 279.974V327.884Z" fill="#FD6824"/>
<path d="M292.095 279.974H236.994V327.876H292.095V279.974Z" fill="#FD6824"/>
<path d="M287.005 322.634H274.326V324.439H287.005V322.634Z" fill="white"/>
<path d="M287.005 311.125H274.326V320.836H287.005V311.125Z" fill="white"/>
<path d="M270.912 279.974H258.177V297.734H270.912V279.974Z" fill="black" fill-opacity="0.25"/>
<path d="M236.994 327.884H228.816V285.239L236.994 279.974V327.884Z" fill="#FD6824"/>
<defs>
<clipPath id="clip0_277_225">
<rect width="428" height="236.151" fill="white" transform="translate(-54 225.491) rotate(-35)"/>
</clipPath>
</defs>
</svg>
