<?xml version="1.0" encoding="utf-8"?>
<!-- Generator: Adobe Illustrator 26.0.1, SVG Export Plug-In . SVG Version: 6.00 Build 0)  -->
<svg version="1.1" id="Capa_1" xmlns="http://www.w3.org/2000/svg" xmlns:xlink="http://www.w3.org/1999/xlink" x="0px" y="0px"
	 viewBox="0 0 1012 1012" style="enable-background:new 0 0 1012 1012;" xml:space="preserve">
<g>
	<path id="Path_2520" d="M861.5,862.6H711.7v-235c0-56.1-0.9-128.1-78.1-128.1c-78.1,0-90,61-90,124.2v239H393.7V379.5h144v65.9h2.1
		c29.5-50.3,83.9-80.2,142.2-78.1c152,0,180,100.1,180,230.1L861.5,862.6z M224.4,313.6c-48.2,0-87-39-87-87s39-87,87-87
		s87,39,87,87C311.4,274.5,272.3,313.6,224.4,313.6L224.4,313.6 M299.2,862.6H149.1V379.5h150.1V862.6z M936.4,0H73.8
		C32.9-0.5-0.3,32.3-1,73V939c0.5,40.9,33.9,73.4,74.6,73h862.6c40.9,0.5,74.4-32.3,75.1-73V73C1010.7,32.3,977.1-0.5,936.4,0"/>
</g>
</svg>
